<?xml version="1.0" encoding="UTF-8" standalone="no"?>
<!DOCTYPE svg PUBLIC "-//W3C//DTD SVG 1.1//EN"
 "http://www.w3.org/Graphics/SVG/1.1/DTD/svg11.dtd">
<!-- Generated by graphviz version 2.43.0 (0)
 -->
<!-- Title: %3 Pages: 1 -->
<svg width="232pt" height="704pt"
 viewBox="0.00 0.00 232.00 704.00" xmlns="http://www.w3.org/2000/svg" xmlns:xlink="http://www.w3.org/1999/xlink">
<g id="graph0" class="graph" transform="scale(1 1) rotate(0) translate(4 700)">
<title>%3</title>
<polygon fill="white" stroke="transparent" points="-4,4 -4,-700 228,-700 228,4 -4,4"/>
<!-- 1053 -->
<g id="node1" class="node">
<title>1053</title>
<g id="a_node1"><a xlink:title="~">
<polygon fill="#ff0000" stroke="#ff0000" points="195.5,-696 28.5,-696 28.5,-644 195.5,-644 195.5,-696"/>
<text text-anchor="middle" x="112" y="-684" font-family="Arial" font-size="10.00" fill="#ffffff">~:0:&lt;built&#45;in method builtins.exec&gt;</text>
<text text-anchor="middle" x="112" y="-673" font-family="Arial" font-size="10.00" fill="#ffffff">100.00%</text>
<text text-anchor="middle" x="112" y="-662" font-family="Arial" font-size="10.00" fill="#ffffff">(0.00%)</text>
<text text-anchor="middle" x="112" y="-651" font-family="Arial" font-size="10.00" fill="#ffffff">604×</text>
</a>
</g>
</g>
<!-- 1568 -->
<g id="node2" class="node">
<title>1568</title>
<g id="a_node2"><a xlink:title="probaZZ&#45;Copy.py">
<polygon fill="#ff0000" stroke="#ff0000" points="179,-604 45,-604 45,-552 179,-552 179,-604"/>
<text text-anchor="middle" x="112" y="-592" font-family="Arial" font-size="10.00" fill="#ffffff">probaZZ&#45;Copy:2:&lt;module&gt;</text>
<text text-anchor="middle" x="112" y="-581" font-family="Arial" font-size="10.00" fill="#ffffff">100.00%</text>
<text text-anchor="middle" x="112" y="-570" font-family="Arial" font-size="10.00" fill="#ffffff">(0.00%)</text>
<text text-anchor="middle" x="112" y="-559" font-family="Arial" font-size="10.00" fill="#ffffff">1×</text>
</a>
</g>
</g>
<!-- 1053&#45;&gt;1568 -->
<g id="edge1" class="edge">
<title>1053&#45;&gt;1568</title>
<path fill="none" stroke="#ff0000" stroke-width="4" d="M112,-643.93C112,-634.74 112,-624.17 112,-614.25"/>
<polygon fill="#ff0000" stroke="#ff0000" stroke-width="4" points="115.5,-614.25 112,-604.25 108.5,-614.25 115.5,-614.25"/>
<text text-anchor="middle" x="131.5" y="-627" font-family="Arial" font-size="10.00" fill="#ff0000">100.00%</text>
<text text-anchor="middle" x="131.5" y="-616" font-family="Arial" font-size="10.00" fill="#ff0000">1×</text>
</g>
<!-- 1850 -->
<g id="node3" class="node">
<title>1850</title>
<g id="a_node3"><a xlink:title="/usr/lib/python3.8/multiprocessing/pool.py">
<polygon fill="#ff0000" stroke="#ff0000" points="149.5,-512 74.5,-512 74.5,-460 149.5,-460 149.5,-512"/>
<text text-anchor="middle" x="112" y="-500" font-family="Arial" font-size="10.00" fill="#ffffff">pool:359:map</text>
<text text-anchor="middle" x="112" y="-489" font-family="Arial" font-size="10.00" fill="#ffffff">99.95%</text>
<text text-anchor="middle" x="112" y="-478" font-family="Arial" font-size="10.00" fill="#ffffff">(0.00%)</text>
<text text-anchor="middle" x="112" y="-467" font-family="Arial" font-size="10.00" fill="#ffffff">1×</text>
</a>
</g>
</g>
<!-- 1568&#45;&gt;1850 -->
<g id="edge2" class="edge">
<title>1568&#45;&gt;1850</title>
<path fill="none" stroke="#ff0000" stroke-width="4" d="M112,-551.93C112,-542.74 112,-532.17 112,-522.25"/>
<polygon fill="#ff0000" stroke="#ff0000" stroke-width="4" points="115.5,-522.25 112,-512.25 108.5,-522.25 115.5,-522.25"/>
<text text-anchor="middle" x="129" y="-535" font-family="Arial" font-size="10.00" fill="#ff0000">99.95%</text>
<text text-anchor="middle" x="129" y="-524" font-family="Arial" font-size="10.00" fill="#ff0000">1×</text>
</g>
<!-- 1854 -->
<g id="node6" class="node">
<title>1854</title>
<g id="a_node6"><a xlink:title="/usr/lib/python3.8/multiprocessing/pool.py">
<polygon fill="#ff0000" stroke="#ff0000" points="147,-420 77,-420 77,-368 147,-368 147,-420"/>
<text text-anchor="middle" x="112" y="-408" font-family="Arial" font-size="10.00" fill="#ffffff">pool:764:get</text>
<text text-anchor="middle" x="112" y="-397" font-family="Arial" font-size="10.00" fill="#ffffff">99.95%</text>
<text text-anchor="middle" x="112" y="-386" font-family="Arial" font-size="10.00" fill="#ffffff">(0.00%)</text>
<text text-anchor="middle" x="112" y="-375" font-family="Arial" font-size="10.00" fill="#ffffff">1×</text>
</a>
</g>
</g>
<!-- 1850&#45;&gt;1854 -->
<g id="edge4" class="edge">
<title>1850&#45;&gt;1854</title>
<path fill="none" stroke="#ff0000" stroke-width="4" d="M112,-459.93C112,-450.74 112,-440.17 112,-430.25"/>
<polygon fill="#ff0000" stroke="#ff0000" stroke-width="4" points="115.5,-430.25 112,-420.25 108.5,-430.25 115.5,-430.25"/>
<text text-anchor="middle" x="129" y="-443" font-family="Arial" font-size="10.00" fill="#ff0000">99.95%</text>
<text text-anchor="middle" x="129" y="-432" font-family="Arial" font-size="10.00" fill="#ff0000">1×</text>
</g>
<!-- 1677 -->
<g id="node4" class="node">
<title>1677</title>
<g id="a_node4"><a xlink:title="/usr/lib/python3.8/threading.py">
<polygon fill="#ff0000" stroke="#ff0000" points="160,-144 64,-144 64,-92 160,-92 160,-144"/>
<text text-anchor="middle" x="112" y="-132" font-family="Arial" font-size="10.00" fill="#ffffff">threading:270:wait</text>
<text text-anchor="middle" x="112" y="-121" font-family="Arial" font-size="10.00" fill="#ffffff">99.95%</text>
<text text-anchor="middle" x="112" y="-110" font-family="Arial" font-size="10.00" fill="#ffffff">(0.00%)</text>
<text text-anchor="middle" x="112" y="-99" font-family="Arial" font-size="10.00" fill="#ffffff">12×</text>
</a>
</g>
</g>
<!-- 1692 -->
<g id="node5" class="node">
<title>1692</title>
<g id="a_node5"><a xlink:title="~">
<polygon fill="#ff0000" stroke="#ff0000" points="224,-52 0,-52 0,0 224,0 224,-52"/>
<text text-anchor="middle" x="112" y="-40" font-family="Arial" font-size="10.00" fill="#ffffff">~:0:&lt;method &#39;acquire&#39; of &#39;_thread.lock&#39; objects&gt;</text>
<text text-anchor="middle" x="112" y="-29" font-family="Arial" font-size="10.00" fill="#ffffff">99.95%</text>
<text text-anchor="middle" x="112" y="-18" font-family="Arial" font-size="10.00" fill="#ffffff">(99.95%)</text>
<text text-anchor="middle" x="112" y="-7" font-family="Arial" font-size="10.00" fill="#ffffff">50×</text>
</a>
</g>
</g>
<!-- 1677&#45;&gt;1692 -->
<g id="edge3" class="edge">
<title>1677&#45;&gt;1692</title>
<path fill="none" stroke="#ff0000" stroke-width="4" d="M112,-91.93C112,-82.74 112,-72.17 112,-62.25"/>
<polygon fill="#ff0000" stroke="#ff0000" stroke-width="4" points="115.5,-62.25 112,-52.25 108.5,-62.25 115.5,-62.25"/>
<text text-anchor="middle" x="129" y="-75" font-family="Arial" font-size="10.00" fill="#ff0000">99.95%</text>
<text text-anchor="middle" x="129" y="-64" font-family="Arial" font-size="10.00" fill="#ff0000">24×</text>
</g>
<!-- 1855 -->
<g id="node7" class="node">
<title>1855</title>
<g id="a_node7"><a xlink:title="/usr/lib/python3.8/multiprocessing/pool.py">
<polygon fill="#ff0000" stroke="#ff0000" points="149,-328 75,-328 75,-276 149,-276 149,-328"/>
<text text-anchor="middle" x="112" y="-316" font-family="Arial" font-size="10.00" fill="#ffffff">pool:761:wait</text>
<text text-anchor="middle" x="112" y="-305" font-family="Arial" font-size="10.00" fill="#ffffff">99.95%</text>
<text text-anchor="middle" x="112" y="-294" font-family="Arial" font-size="10.00" fill="#ffffff">(0.00%)</text>
<text text-anchor="middle" x="112" y="-283" font-family="Arial" font-size="10.00" fill="#ffffff">1×</text>
</a>
</g>
</g>
<!-- 1854&#45;&gt;1855 -->
<g id="edge5" class="edge">
<title>1854&#45;&gt;1855</title>
<path fill="none" stroke="#ff0000" stroke-width="4" d="M112,-367.93C112,-358.74 112,-348.17 112,-338.25"/>
<polygon fill="#ff0000" stroke="#ff0000" stroke-width="4" points="115.5,-338.25 112,-328.25 108.5,-338.25 115.5,-338.25"/>
<text text-anchor="middle" x="129" y="-351" font-family="Arial" font-size="10.00" fill="#ff0000">99.95%</text>
<text text-anchor="middle" x="129" y="-340" font-family="Arial" font-size="10.00" fill="#ff0000">1×</text>
</g>
<!-- 4702 -->
<g id="node8" class="node">
<title>4702</title>
<g id="a_node8"><a xlink:title="/usr/lib/python3.8/threading.py">
<polygon fill="#ff0000" stroke="#ff0000" points="160,-236 64,-236 64,-184 160,-184 160,-236"/>
<text text-anchor="middle" x="112" y="-224" font-family="Arial" font-size="10.00" fill="#ffffff">threading:540:wait</text>
<text text-anchor="middle" x="112" y="-213" font-family="Arial" font-size="10.00" fill="#ffffff">99.95%</text>
<text text-anchor="middle" x="112" y="-202" font-family="Arial" font-size="10.00" fill="#ffffff">(0.00%)</text>
<text text-anchor="middle" x="112" y="-191" font-family="Arial" font-size="10.00" fill="#ffffff">12×</text>
</a>
</g>
</g>
<!-- 1855&#45;&gt;4702 -->
<g id="edge6" class="edge">
<title>1855&#45;&gt;4702</title>
<path fill="none" stroke="#ff0000" stroke-width="4" d="M112,-275.93C112,-266.74 112,-256.17 112,-246.25"/>
<polygon fill="#ff0000" stroke="#ff0000" stroke-width="4" points="115.5,-246.25 112,-236.25 108.5,-246.25 115.5,-246.25"/>
<text text-anchor="middle" x="129" y="-259" font-family="Arial" font-size="10.00" fill="#ff0000">99.95%</text>
<text text-anchor="middle" x="129" y="-248" font-family="Arial" font-size="10.00" fill="#ff0000">1×</text>
</g>
<!-- 4702&#45;&gt;1677 -->
<g id="edge7" class="edge">
<title>4702&#45;&gt;1677</title>
<path fill="none" stroke="#ff0000" stroke-width="4" d="M112,-183.93C112,-174.74 112,-164.17 112,-154.25"/>
<polygon fill="#ff0000" stroke="#ff0000" stroke-width="4" points="115.5,-154.25 112,-144.25 108.5,-154.25 115.5,-154.25"/>
<text text-anchor="middle" x="129" y="-167" font-family="Arial" font-size="10.00" fill="#ff0000">99.95%</text>
<text text-anchor="middle" x="129" y="-156" font-family="Arial" font-size="10.00" fill="#ff0000">12×</text>
</g>
</g>
</svg>
