<?xml version="1.0" encoding="UTF-8" standalone="no"?>
<!DOCTYPE svg PUBLIC "-//W3C//DTD SVG 1.1//EN"
 "http://www.w3.org/Graphics/SVG/1.1/DTD/svg11.dtd">
<!-- Generated by graphviz version 2.43.0 (0)
 -->
<!-- Title: %3 Pages: 1 -->
<svg width="824pt" height="1716pt"
 viewBox="0.00 0.00 823.50 1716.00" xmlns="http://www.w3.org/2000/svg" xmlns:xlink="http://www.w3.org/1999/xlink">
<g id="graph0" class="graph" transform="scale(1 1) rotate(0) translate(4 1712)">
<title>%3</title>
<polygon fill="white" stroke="transparent" points="-4,4 -4,-1712 819.5,-1712 819.5,4 -4,4"/>
<!-- 1 -->
<g id="node1" class="node">
<title>1</title>
<g id="a_node1"><a xlink:title="profile">
<polygon fill="#ff0000" stroke="#ff0000" points="415,-1708 74,-1708 74,-1656 415,-1656 415,-1708"/>
<text text-anchor="middle" x="244.5" y="-1696" font-family="Arial" font-size="10.00" fill="#ffffff">profile:0:&lt;code object &lt;module&gt; at 0x7f9dc2819660, file &quot;main.py&quot;, line 1&gt;</text>
<text text-anchor="middle" x="244.5" y="-1685" font-family="Arial" font-size="10.00" fill="#ffffff">100.00%</text>
<text text-anchor="middle" x="244.5" y="-1674" font-family="Arial" font-size="10.00" fill="#ffffff">(0.00%)</text>
<text text-anchor="middle" x="244.5" y="-1663" font-family="Arial" font-size="10.00" fill="#ffffff">1×</text>
</a>
</g>
</g>
<!-- 2 -->
<g id="node2" class="node">
<title>2</title>
<polygon fill="#ff0000" stroke="#ff0000" points="272,-1616 217,-1616 217,-1564 272,-1564 272,-1616"/>
<text text-anchor="middle" x="244.5" y="-1604" font-family="Arial" font-size="10.00" fill="#ffffff">:0:exec</text>
<text text-anchor="middle" x="244.5" y="-1593" font-family="Arial" font-size="10.00" fill="#ffffff">100.00%</text>
<text text-anchor="middle" x="244.5" y="-1582" font-family="Arial" font-size="10.00" fill="#ffffff">(0.01%)</text>
<text text-anchor="middle" x="244.5" y="-1571" font-family="Arial" font-size="10.00" fill="#ffffff">596×</text>
</g>
<!-- 1&#45;&gt;2 -->
<g id="edge1" class="edge">
<title>1&#45;&gt;2</title>
<path fill="none" stroke="#0d0d73" stroke-width="0.5" d="M244.5,-1655.93C244.5,-1644.71 244.5,-1631.42 244.5,-1619.8"/>
<polygon fill="#0d0d73" stroke="#0d0d73" stroke-width="0.5" points="245.73,-1619.75 244.5,-1616.25 243.28,-1619.75 245.73,-1619.75"/>
<text text-anchor="middle" x="258.5" y="-1639" font-family="Arial" font-size="10.00" fill="#0d0d73">0.17%</text>
<text text-anchor="middle" x="258.5" y="-1628" font-family="Arial" font-size="10.00" fill="#0d0d73">1×</text>
</g>
<!-- 8 -->
<g id="node3" class="node">
<title>8</title>
<g id="a_node3"><a xlink:title="main.py">
<polygon fill="#ff0000" stroke="#ff0000" points="290.5,-1524 198.5,-1524 198.5,-1472 290.5,-1472 290.5,-1524"/>
<text text-anchor="middle" x="244.5" y="-1512" font-family="Arial" font-size="10.00" fill="#ffffff">main:1:&lt;module&gt;</text>
<text text-anchor="middle" x="244.5" y="-1501" font-family="Arial" font-size="10.00" fill="#ffffff">100.00%</text>
<text text-anchor="middle" x="244.5" y="-1490" font-family="Arial" font-size="10.00" fill="#ffffff">(0.01%)</text>
<text text-anchor="middle" x="244.5" y="-1479" font-family="Arial" font-size="10.00" fill="#ffffff">1×</text>
</a>
</g>
</g>
<!-- 2&#45;&gt;8 -->
<g id="edge2" class="edge">
<title>2&#45;&gt;8</title>
<path fill="none" stroke="#ff0000" stroke-width="4" d="M244.5,-1563.93C244.5,-1554.74 244.5,-1544.17 244.5,-1534.25"/>
<polygon fill="#ff0000" stroke="#ff0000" stroke-width="4" points="248,-1534.25 244.5,-1524.25 241,-1534.25 248,-1534.25"/>
<text text-anchor="middle" x="264" y="-1547" font-family="Arial" font-size="10.00" fill="#ff0000">100.00%</text>
<text text-anchor="middle" x="264" y="-1536" font-family="Arial" font-size="10.00" fill="#ff0000">1×</text>
</g>
<!-- 754 -->
<g id="node4" class="node">
<title>754</title>
<g id="a_node4"><a xlink:title="/home/michel/Documentos/tads/tcc_zigue_zague/zigue_zague_oo/ziguezague.py">
<polygon fill="#0ba35e" stroke="#0ba35e" points="155,-1432 0,-1432 0,-1380 155,-1380 155,-1432"/>
<text text-anchor="middle" x="77.5" y="-1420" font-family="Arial" font-size="10.00" fill="#ffffff">ziguezague:167:distintasProbas</text>
<text text-anchor="middle" x="77.5" y="-1409" font-family="Arial" font-size="10.00" fill="#ffffff">36.38%</text>
<text text-anchor="middle" x="77.5" y="-1398" font-family="Arial" font-size="10.00" fill="#ffffff">(36.36%)</text>
<text text-anchor="middle" x="77.5" y="-1387" font-family="Arial" font-size="10.00" fill="#ffffff">1×</text>
</a>
</g>
</g>
<!-- 8&#45;&gt;754 -->
<g id="edge3" class="edge">
<title>8&#45;&gt;754</title>
<path fill="none" stroke="#0ba35e" stroke-width="1.46" d="M198.42,-1472.17C177.06,-1460.66 151.58,-1446.93 129.53,-1435.04"/>
<polygon fill="#0ba35e" stroke="#0ba35e" stroke-width="1.46" points="130.28,-1433.06 124,-1432.06 128.29,-1436.76 130.28,-1433.06"/>
<text text-anchor="middle" x="198.5" y="-1455" font-family="Arial" font-size="10.00" fill="#0ba35e">36.38%</text>
<text text-anchor="middle" x="198.5" y="-1444" font-family="Arial" font-size="10.00" fill="#0ba35e">1×</text>
</g>
<!-- 766 -->
<g id="node5" class="node">
<title>766</title>
<g id="a_node5"><a xlink:title="/home/michel/Documentos/tads/tcc_zigue_zague/zigue_zague_oo/ziguezague.py">
<polygon fill="#0c8390" stroke="#0c8390" points="325,-1432 164,-1432 164,-1380 325,-1380 325,-1432"/>
<text text-anchor="middle" x="244.5" y="-1420" font-family="Arial" font-size="10.00" fill="#ffffff">ziguezague:184:imprimeCaminho</text>
<text text-anchor="middle" x="244.5" y="-1409" font-family="Arial" font-size="10.00" fill="#ffffff">22.57%</text>
<text text-anchor="middle" x="244.5" y="-1398" font-family="Arial" font-size="10.00" fill="#ffffff">(0.15%)</text>
<text text-anchor="middle" x="244.5" y="-1387" font-family="Arial" font-size="10.00" fill="#ffffff">571×</text>
</a>
</g>
</g>
<!-- 8&#45;&gt;766 -->
<g id="edge4" class="edge">
<title>8&#45;&gt;766</title>
<path fill="none" stroke="#0c8390" stroke-width="0.9" d="M244.5,-1471.93C244.5,-1461.2 244.5,-1448.56 244.5,-1437.31"/>
<polygon fill="#0c8390" stroke="#0c8390" stroke-width="0.9" points="246.18,-1437.05 244.5,-1432.25 242.82,-1437.05 246.18,-1437.05"/>
<text text-anchor="middle" x="261.5" y="-1455" font-family="Arial" font-size="10.00" fill="#0c8390">22.57%</text>
<text text-anchor="middle" x="261.5" y="-1444" font-family="Arial" font-size="10.00" fill="#0c8390">571×</text>
</g>
<!-- 3438 -->
<g id="node6" class="node">
<title>3438</title>
<g id="a_node6"><a xlink:title="/home/michel/Documentos/tads/tcc_zigue_zague/zigue_zague_oo/ziguezague.py">
<polygon fill="#0c9b79" stroke="#0c9b79" points="485,-1432 334,-1432 334,-1380 485,-1380 485,-1432"/>
<text text-anchor="middle" x="409.5" y="-1420" font-family="Arial" font-size="10.00" fill="#ffffff">ziguezague:259:configGraficos</text>
<text text-anchor="middle" x="409.5" y="-1409" font-family="Arial" font-size="10.00" fill="#ffffff">30.93%</text>
<text text-anchor="middle" x="409.5" y="-1398" font-family="Arial" font-size="10.00" fill="#ffffff">(0.00%)</text>
<text text-anchor="middle" x="409.5" y="-1387" font-family="Arial" font-size="10.00" fill="#ffffff">1×</text>
</a>
</g>
</g>
<!-- 8&#45;&gt;3438 -->
<g id="edge5" class="edge">
<title>8&#45;&gt;3438</title>
<path fill="none" stroke="#0c9b79" stroke-width="1.24" d="M290.46,-1471.93C311.56,-1460.42 336.65,-1446.73 358.35,-1434.9"/>
<polygon fill="#0c9b79" stroke="#0c9b79" stroke-width="1.24" points="359.52,-1436.49 363.5,-1432.09 357.64,-1433.05 359.52,-1436.49"/>
<text text-anchor="middle" x="364.5" y="-1455" font-family="Arial" font-size="10.00" fill="#0c9b79">30.93%</text>
<text text-anchor="middle" x="364.5" y="-1444" font-family="Arial" font-size="10.00" fill="#0c9b79">1×</text>
</g>
<!-- 2965 -->
<g id="node13" class="node">
<title>2965</title>
<g id="a_node13"><a xlink:title="/usr/lib/python3/dist&#45;packages/matplotlib/pyplot.py">
<polygon fill="#0c8a92" stroke="#0c8a92" points="294.5,-1340 194.5,-1340 194.5,-1288 294.5,-1288 294.5,-1340"/>
<text text-anchor="middle" x="244.5" y="-1328" font-family="Arial" font-size="10.00" fill="#ffffff">pyplot:2831:scatter</text>
<text text-anchor="middle" x="244.5" y="-1317" font-family="Arial" font-size="10.00" fill="#ffffff">23.59%</text>
<text text-anchor="middle" x="244.5" y="-1306" font-family="Arial" font-size="10.00" fill="#ffffff">(0.04%)</text>
<text text-anchor="middle" x="244.5" y="-1295" font-family="Arial" font-size="10.00" fill="#ffffff">580×</text>
</a>
</g>
</g>
<!-- 766&#45;&gt;2965 -->
<g id="edge8" class="edge">
<title>766&#45;&gt;2965</title>
<path fill="none" stroke="#0c8891" stroke-width="0.93" d="M244.5,-1379.93C244.5,-1369.2 244.5,-1356.56 244.5,-1345.31"/>
<polygon fill="#0c8891" stroke="#0c8891" stroke-width="0.93" points="246.18,-1345.05 244.5,-1340.25 242.82,-1345.05 246.18,-1345.05"/>
<text text-anchor="middle" x="261.5" y="-1363" font-family="Arial" font-size="10.00" fill="#0c8891">23.23%</text>
<text text-anchor="middle" x="261.5" y="-1352" font-family="Arial" font-size="10.00" fill="#0c8891">571×</text>
</g>
<!-- 3451 -->
<g id="node24" class="node">
<title>3451</title>
<g id="a_node24"><a xlink:title="/usr/lib/python3/dist&#45;packages/matplotlib/pyplot.py">
<polygon fill="#0c9b7b" stroke="#0c9b7b" points="453.5,-1340 365.5,-1340 365.5,-1288 453.5,-1288 453.5,-1340"/>
<text text-anchor="middle" x="409.5" y="-1328" font-family="Arial" font-size="10.00" fill="#ffffff">pyplot:251:show</text>
<text text-anchor="middle" x="409.5" y="-1317" font-family="Arial" font-size="10.00" fill="#ffffff">30.47%</text>
<text text-anchor="middle" x="409.5" y="-1306" font-family="Arial" font-size="10.00" fill="#ffffff">(0.00%)</text>
<text text-anchor="middle" x="409.5" y="-1295" font-family="Arial" font-size="10.00" fill="#ffffff">1×</text>
</a>
</g>
</g>
<!-- 3438&#45;&gt;3451 -->
<g id="edge23" class="edge">
<title>3438&#45;&gt;3451</title>
<path fill="none" stroke="#0c9b7b" stroke-width="1.22" d="M409.5,-1379.93C409.5,-1369.39 409.5,-1357.02 409.5,-1345.92"/>
<polygon fill="#0c9b7b" stroke="#0c9b7b" stroke-width="1.22" points="411.43,-1345.75 409.5,-1340.25 407.58,-1345.75 411.43,-1345.75"/>
<text text-anchor="middle" x="426.5" y="-1363" font-family="Arial" font-size="10.00" fill="#0c9b7b">30.47%</text>
<text text-anchor="middle" x="426.5" y="-1352" font-family="Arial" font-size="10.00" fill="#0c9b7b">1×</text>
</g>
<!-- 173 -->
<g id="node7" class="node">
<title>173</title>
<g id="a_node7"><a xlink:title="/usr/lib/python3/dist&#45;packages/matplotlib/cbook/__init__.py">
<polygon fill="#0c758d" stroke="#0c758d" points="463,-512 356,-512 356,-460 463,-460 463,-512"/>
<text text-anchor="middle" x="409.5" y="-500" font-family="Arial" font-size="10.00" fill="#ffffff">__init__:205:process</text>
<text text-anchor="middle" x="409.5" y="-489" font-family="Arial" font-size="10.00" fill="#ffffff">20.29%</text>
<text text-anchor="middle" x="409.5" y="-478" font-family="Arial" font-size="10.00" fill="#ffffff">(0.06%)</text>
<text text-anchor="middle" x="409.5" y="-467" font-family="Arial" font-size="10.00" fill="#ffffff">1780×</text>
</a>
</g>
</g>
<!-- 3629 -->
<g id="node8" class="node">
<title>3629</title>
<g id="a_node8"><a xlink:title="/usr/lib/python3/dist&#45;packages/matplotlib/widgets.py">
<polygon fill="#0c748d" stroke="#0c748d" points="463,-420 356,-420 356,-368 463,-368 463,-420"/>
<text text-anchor="middle" x="409.5" y="-408" font-family="Arial" font-size="10.00" fill="#ffffff">widgets:418:_update</text>
<text text-anchor="middle" x="409.5" y="-397" font-family="Arial" font-size="10.00" fill="#ffffff">20.16%</text>
<text text-anchor="middle" x="409.5" y="-386" font-family="Arial" font-size="10.00" fill="#ffffff">(0.00%)</text>
<text text-anchor="middle" x="409.5" y="-375" font-family="Arial" font-size="10.00" fill="#ffffff">846×</text>
</a>
</g>
</g>
<!-- 173&#45;&gt;3629 -->
<g id="edge6" class="edge">
<title>173&#45;&gt;3629</title>
<path fill="none" stroke="#0c748d" stroke-width="0.81" d="M409.5,-459.93C409.5,-449.1 409.5,-436.34 409.5,-425.01"/>
<polygon fill="#0c748d" stroke="#0c748d" stroke-width="0.81" points="411.08,-424.75 409.5,-420.25 407.93,-424.75 411.08,-424.75"/>
<text text-anchor="middle" x="426.5" y="-443" font-family="Arial" font-size="10.00" fill="#0c748d">20.16%</text>
<text text-anchor="middle" x="426.5" y="-432" font-family="Arial" font-size="10.00" fill="#0c748d">846×</text>
</g>
<!-- 973 -->
<g id="node16" class="node">
<title>973</title>
<g id="a_node16"><a xlink:title="/usr/lib/python3/dist&#45;packages/matplotlib/widgets.py">
<polygon fill="#0c748d" stroke="#0c748d" points="461.5,-328 357.5,-328 357.5,-276 461.5,-276 461.5,-328"/>
<text text-anchor="middle" x="409.5" y="-316" font-family="Arial" font-size="10.00" fill="#ffffff">widgets:443:set_val</text>
<text text-anchor="middle" x="409.5" y="-305" font-family="Arial" font-size="10.00" fill="#ffffff">20.16%</text>
<text text-anchor="middle" x="409.5" y="-294" font-family="Arial" font-size="10.00" fill="#ffffff">(0.00%)</text>
<text text-anchor="middle" x="409.5" y="-283" font-family="Arial" font-size="10.00" fill="#ffffff">26×</text>
</a>
</g>
</g>
<!-- 3629&#45;&gt;973 -->
<g id="edge32" class="edge">
<title>3629&#45;&gt;973</title>
<path fill="none" stroke="#0c5887" stroke-width="0.62" d="M409.5,-367.93C409.5,-356.91 409.5,-343.88 409.5,-332.4"/>
<polygon fill="#0c5887" stroke="#0c5887" stroke-width="0.62" points="410.87,-332.15 409.5,-328.25 408.14,-332.15 410.87,-332.15"/>
<text text-anchor="middle" x="426.5" y="-351" font-family="Arial" font-size="10.00" fill="#0c5887">15.51%</text>
<text text-anchor="middle" x="426.5" y="-340" font-family="Arial" font-size="10.00" fill="#0c5887">20×</text>
</g>
<!-- 354 -->
<g id="node9" class="node">
<title>354</title>
<g id="a_node9"><a xlink:title="/usr/lib/python3/dist&#45;packages/matplotlib/axes/_axes.py">
<polygon fill="#0c8791" stroke="#0c8791" points="294,-1156 195,-1156 195,-1104 294,-1104 294,-1156"/>
<text text-anchor="middle" x="244.5" y="-1144" font-family="Arial" font-size="10.00" fill="#ffffff">_axes:4311:scatter</text>
<text text-anchor="middle" x="244.5" y="-1133" font-family="Arial" font-size="10.00" fill="#ffffff">23.09%</text>
<text text-anchor="middle" x="244.5" y="-1122" font-family="Arial" font-size="10.00" fill="#ffffff">(0.19%)</text>
<text text-anchor="middle" x="244.5" y="-1111" font-family="Arial" font-size="10.00" fill="#ffffff">580×</text>
</a>
</g>
</g>
<!-- 417 -->
<g id="node10" class="node">
<title>417</title>
<g id="a_node10"><a xlink:title="/usr/lib/python3/dist&#45;packages/matplotlib/figure.py">
<polygon fill="#0c8891" stroke="#0c8891" points="663,-1708 574,-1708 574,-1656 663,-1656 663,-1708"/>
<text text-anchor="middle" x="618.5" y="-1696" font-family="Arial" font-size="10.00" fill="#ffffff">figure:1661:draw</text>
<text text-anchor="middle" x="618.5" y="-1685" font-family="Arial" font-size="10.00" fill="#ffffff">23.27%</text>
<text text-anchor="middle" x="618.5" y="-1674" font-family="Arial" font-size="10.00" fill="#ffffff">(0.03%)</text>
<text text-anchor="middle" x="618.5" y="-1663" font-family="Arial" font-size="10.00" fill="#ffffff">48×</text>
</a>
</g>
</g>
<!-- 1122 -->
<g id="node11" class="node">
<title>1122</title>
<g id="a_node11"><a xlink:title="/usr/lib/python3/dist&#45;packages/matplotlib/image.py">
<polygon fill="#0c8691" stroke="#0c8691" points="640,-1616 437,-1616 437,-1564 640,-1564 640,-1616"/>
<text text-anchor="middle" x="538.5" y="-1604" font-family="Arial" font-size="10.00" fill="#ffffff">image:117:_draw_list_compositing_images</text>
<text text-anchor="middle" x="538.5" y="-1593" font-family="Arial" font-size="10.00" fill="#ffffff">22.96%</text>
<text text-anchor="middle" x="538.5" y="-1582" font-family="Arial" font-size="10.00" fill="#ffffff">(0.05%)</text>
<text text-anchor="middle" x="538.5" y="-1571" font-family="Arial" font-size="10.00" fill="#ffffff">240×</text>
</a>
</g>
</g>
<!-- 417&#45;&gt;1122 -->
<g id="edge7" class="edge">
<title>417&#45;&gt;1122</title>
<path fill="none" stroke="#0d2179" stroke-width="0.5" d="M596.22,-1655.93C585.99,-1644.42 573.82,-1630.73 563.3,-1618.9"/>
<polygon fill="#0d2179" stroke="#0d2179" stroke-width="0.5" points="564.18,-1618.05 560.94,-1616.25 562.35,-1619.68 564.18,-1618.05"/>
<text text-anchor="middle" x="602.5" y="-1639" font-family="Arial" font-size="10.00" fill="#0d2179">4.59%</text>
<text text-anchor="middle" x="602.5" y="-1628" font-family="Arial" font-size="10.00" fill="#0d2179">48×</text>
</g>
<!-- 3217 -->
<g id="node19" class="node">
<title>3217</title>
<g id="a_node19"><a xlink:title="/usr/lib/python3/dist&#45;packages/matplotlib/artist.py">
<polygon fill="#0c8891" stroke="#0c8891" points="705.5,-1524 589.5,-1524 589.5,-1472 705.5,-1472 705.5,-1524"/>
<text text-anchor="middle" x="647.5" y="-1512" font-family="Arial" font-size="10.00" fill="#ffffff">artist:30:draw_wrapper</text>
<text text-anchor="middle" x="647.5" y="-1501" font-family="Arial" font-size="10.00" fill="#ffffff">23.27%</text>
<text text-anchor="middle" x="647.5" y="-1490" font-family="Arial" font-size="10.00" fill="#ffffff">(0.48%)</text>
<text text-anchor="middle" x="647.5" y="-1479" font-family="Arial" font-size="10.00" fill="#ffffff">35352×</text>
</a>
</g>
</g>
<!-- 1122&#45;&gt;3217 -->
<g id="edge13" class="edge">
<title>1122&#45;&gt;3217</title>
<path fill="none" stroke="#0d3f81" stroke-width="0.5" d="M568.86,-1563.93C582.92,-1552.32 599.66,-1538.5 614.07,-1526.6"/>
<polygon fill="#0d3f81" stroke="#0d3f81" stroke-width="0.5" points="615,-1527.42 616.92,-1524.25 613.44,-1525.53 615,-1527.42"/>
<text text-anchor="middle" x="623.5" y="-1547" font-family="Arial" font-size="10.00" fill="#0d3f81">10.82%</text>
<text text-anchor="middle" x="623.5" y="-1536" font-family="Arial" font-size="10.00" fill="#0d3f81">16440×</text>
</g>
<!-- 703 -->
<g id="node12" class="node">
<title>703</title>
<g id="a_node12"><a xlink:title="/usr/lib/python3/dist&#45;packages/matplotlib/collections.py">
<polygon fill="#0c5586" stroke="#0c5586" points="700.5,-1432 594.5,-1432 594.5,-1380 700.5,-1380 700.5,-1432"/>
<text text-anchor="middle" x="647.5" y="-1420" font-family="Arial" font-size="10.00" fill="#ffffff">collections:249:draw</text>
<text text-anchor="middle" x="647.5" y="-1409" font-family="Arial" font-size="10.00" fill="#ffffff">14.83%</text>
<text text-anchor="middle" x="647.5" y="-1398" font-family="Arial" font-size="10.00" fill="#ffffff">(1.71%)</text>
<text text-anchor="middle" x="647.5" y="-1387" font-family="Arial" font-size="10.00" fill="#ffffff">13920×</text>
</a>
</g>
</g>
<!-- 3367 -->
<g id="node20" class="node">
<title>3367</title>
<g id="a_node20"><a xlink:title="/usr/lib/python3/dist&#45;packages/matplotlib/__init__.py">
<polygon fill="#0c8791" stroke="#0c8791" points="293.5,-1248 195.5,-1248 195.5,-1196 293.5,-1196 293.5,-1248"/>
<text text-anchor="middle" x="244.5" y="-1236" font-family="Arial" font-size="10.00" fill="#ffffff">__init__:1598:inner</text>
<text text-anchor="middle" x="244.5" y="-1225" font-family="Arial" font-size="10.00" fill="#ffffff">23.17%</text>
<text text-anchor="middle" x="244.5" y="-1214" font-family="Arial" font-size="10.00" fill="#ffffff">(0.04%)</text>
<text text-anchor="middle" x="244.5" y="-1203" font-family="Arial" font-size="10.00" fill="#ffffff">580×</text>
</a>
</g>
</g>
<!-- 2965&#45;&gt;3367 -->
<g id="edge14" class="edge">
<title>2965&#45;&gt;3367</title>
<path fill="none" stroke="#0c8791" stroke-width="0.93" d="M244.5,-1287.93C244.5,-1277.2 244.5,-1264.56 244.5,-1253.31"/>
<polygon fill="#0c8791" stroke="#0c8791" stroke-width="0.93" points="246.18,-1253.05 244.5,-1248.25 242.82,-1253.05 246.18,-1253.05"/>
<text text-anchor="middle" x="261.5" y="-1271" font-family="Arial" font-size="10.00" fill="#0c8791">23.17%</text>
<text text-anchor="middle" x="261.5" y="-1260" font-family="Arial" font-size="10.00" fill="#0c8791">580×</text>
</g>
<!-- 942 -->
<g id="node14" class="node">
<title>942</title>
<g id="a_node14"><a xlink:title="/usr/lib/python3/dist&#45;packages/matplotlib/backend_bases.py">
<polygon fill="#0c9b7b" stroke="#0c9b7b" points="477,-1156 342,-1156 342,-1104 477,-1104 477,-1156"/>
<text text-anchor="middle" x="409.5" y="-1144" font-family="Arial" font-size="10.00" fill="#ffffff">backend_bases:3276:show</text>
<text text-anchor="middle" x="409.5" y="-1133" font-family="Arial" font-size="10.00" fill="#ffffff">30.47%</text>
<text text-anchor="middle" x="409.5" y="-1122" font-family="Arial" font-size="10.00" fill="#ffffff">(0.00%)</text>
<text text-anchor="middle" x="409.5" y="-1111" font-family="Arial" font-size="10.00" fill="#ffffff">1×</text>
</a>
</g>
</g>
<!-- 3456 -->
<g id="node15" class="node">
<title>3456</title>
<g id="a_node15"><a xlink:title="/usr/lib/python3/dist&#45;packages/matplotlib/backends/_backend_tk.py">
<polygon fill="#0c9b7b" stroke="#0c9b7b" points="476,-1064 343,-1064 343,-1012 476,-1012 476,-1064"/>
<text text-anchor="middle" x="409.5" y="-1052" font-family="Arial" font-size="10.00" fill="#ffffff">_backend_tk:977:mainloop</text>
<text text-anchor="middle" x="409.5" y="-1041" font-family="Arial" font-size="10.00" fill="#ffffff">30.47%</text>
<text text-anchor="middle" x="409.5" y="-1030" font-family="Arial" font-size="10.00" fill="#ffffff">(0.00%)</text>
<text text-anchor="middle" x="409.5" y="-1019" font-family="Arial" font-size="10.00" fill="#ffffff">1×</text>
</a>
</g>
</g>
<!-- 942&#45;&gt;3456 -->
<g id="edge9" class="edge">
<title>942&#45;&gt;3456</title>
<path fill="none" stroke="#0c9b7b" stroke-width="1.22" d="M409.5,-1103.93C409.5,-1093.39 409.5,-1081.02 409.5,-1069.92"/>
<polygon fill="#0c9b7b" stroke="#0c9b7b" stroke-width="1.22" points="411.43,-1069.75 409.5,-1064.25 407.58,-1069.75 411.43,-1069.75"/>
<text text-anchor="middle" x="426.5" y="-1087" font-family="Arial" font-size="10.00" fill="#0c9b7b">30.47%</text>
<text text-anchor="middle" x="426.5" y="-1076" font-family="Arial" font-size="10.00" fill="#0c9b7b">1×</text>
</g>
<!-- 3457 -->
<g id="node26" class="node">
<title>3457</title>
<g id="a_node26"><a xlink:title="/usr/lib/python3.8/tkinter/__init__.py">
<polygon fill="#0c9b7b" stroke="#0c9b7b" points="467.5,-972 351.5,-972 351.5,-920 467.5,-920 467.5,-972"/>
<text text-anchor="middle" x="409.5" y="-960" font-family="Arial" font-size="10.00" fill="#ffffff">__init__:1427:mainloop</text>
<text text-anchor="middle" x="409.5" y="-949" font-family="Arial" font-size="10.00" fill="#ffffff">30.47%</text>
<text text-anchor="middle" x="409.5" y="-938" font-family="Arial" font-size="10.00" fill="#ffffff">(0.00%)</text>
<text text-anchor="middle" x="409.5" y="-927" font-family="Arial" font-size="10.00" fill="#ffffff">1×</text>
</a>
</g>
</g>
<!-- 3456&#45;&gt;3457 -->
<g id="edge26" class="edge">
<title>3456&#45;&gt;3457</title>
<path fill="none" stroke="#0c9b7b" stroke-width="1.22" d="M409.5,-1011.93C409.5,-1001.39 409.5,-989.02 409.5,-977.92"/>
<polygon fill="#0c9b7b" stroke="#0c9b7b" stroke-width="1.22" points="411.43,-977.75 409.5,-972.25 407.58,-977.75 411.43,-977.75"/>
<text text-anchor="middle" x="426.5" y="-995" font-family="Arial" font-size="10.00" fill="#0c9b7b">30.47%</text>
<text text-anchor="middle" x="426.5" y="-984" font-family="Arial" font-size="10.00" fill="#0c9b7b">1×</text>
</g>
<!-- 3469 -->
<g id="node17" class="node">
<title>3469</title>
<g id="a_node17"><a xlink:title="/usr/lib/python3/dist&#45;packages/matplotlib/widgets.py">
<polygon fill="#0c748d" stroke="#0c748d" points="464.5,-236 354.5,-236 354.5,-184 464.5,-184 464.5,-236"/>
<text text-anchor="middle" x="409.5" y="-224" font-family="Arial" font-size="10.00" fill="#ffffff">widgets:1221:funcleft</text>
<text text-anchor="middle" x="409.5" y="-213" font-family="Arial" font-size="10.00" fill="#ffffff">20.14%</text>
<text text-anchor="middle" x="409.5" y="-202" font-family="Arial" font-size="10.00" fill="#ffffff">(0.00%)</text>
<text text-anchor="middle" x="409.5" y="-191" font-family="Arial" font-size="10.00" fill="#ffffff">20×</text>
</a>
</g>
</g>
<!-- 973&#45;&gt;3469 -->
<g id="edge10" class="edge">
<title>973&#45;&gt;3469</title>
<path fill="none" stroke="#0c748d" stroke-width="0.81" d="M409.5,-275.93C409.5,-265.1 409.5,-252.34 409.5,-241.01"/>
<polygon fill="#0c748d" stroke="#0c748d" stroke-width="0.81" points="411.08,-240.75 409.5,-236.25 407.93,-240.75 411.08,-240.75"/>
<text text-anchor="middle" x="426.5" y="-259" font-family="Arial" font-size="10.00" fill="#0c748d">20.14%</text>
<text text-anchor="middle" x="426.5" y="-248" font-family="Arial" font-size="10.00" fill="#0c748d">20×</text>
</g>
<!-- 3467 -->
<g id="node29" class="node">
<title>3467</title>
<g id="a_node29"><a xlink:title="/usr/lib/python3/dist&#45;packages/matplotlib/backends/backend_tkagg.py">
<polygon fill="#0c8d92" stroke="#0c8d92" points="467,-144 352,-144 352,-92 467,-92 467,-144"/>
<text text-anchor="middle" x="409.5" y="-132" font-family="Arial" font-size="10.00" fill="#ffffff">backend_tkagg:8:draw</text>
<text text-anchor="middle" x="409.5" y="-121" font-family="Arial" font-size="10.00" fill="#ffffff">24.09%</text>
<text text-anchor="middle" x="409.5" y="-110" font-family="Arial" font-size="10.00" fill="#ffffff">(0.00%)</text>
<text text-anchor="middle" x="409.5" y="-99" font-family="Arial" font-size="10.00" fill="#ffffff">48×</text>
</a>
</g>
</g>
<!-- 3469&#45;&gt;3467 -->
<g id="edge31" class="edge">
<title>3469&#45;&gt;3467</title>
<path fill="none" stroke="#0d3b80" stroke-width="0.5" d="M409.5,-183.93C409.5,-172.71 409.5,-159.42 409.5,-147.8"/>
<polygon fill="#0d3b80" stroke="#0d3b80" stroke-width="0.5" points="410.73,-147.75 409.5,-144.25 408.28,-147.75 410.73,-147.75"/>
<text text-anchor="middle" x="426.5" y="-167" font-family="Arial" font-size="10.00" fill="#0d3b80">10.04%</text>
<text text-anchor="middle" x="426.5" y="-156" font-family="Arial" font-size="10.00" fill="#0d3b80">20×</text>
</g>
<!-- 1090 -->
<g id="node18" class="node">
<title>1090</title>
<g id="a_node18"><a xlink:title="/usr/lib/python3/dist&#45;packages/matplotlib/axes/_base.py">
<polygon fill="#0c8691" stroke="#0c8691" points="585,-1432 494,-1432 494,-1380 585,-1380 585,-1432"/>
<text text-anchor="middle" x="539.5" y="-1420" font-family="Arial" font-size="10.00" fill="#ffffff">_base:2573:draw</text>
<text text-anchor="middle" x="539.5" y="-1409" font-family="Arial" font-size="10.00" fill="#ffffff">22.95%</text>
<text text-anchor="middle" x="539.5" y="-1398" font-family="Arial" font-size="10.00" fill="#ffffff">(0.01%)</text>
<text text-anchor="middle" x="539.5" y="-1387" font-family="Arial" font-size="10.00" fill="#ffffff">192×</text>
</a>
</g>
</g>
<!-- 1090&#45;&gt;1122 -->
<g id="edge11" class="edge">
<title>1090&#45;&gt;1122</title>
<path fill="none" stroke="#0c698b" stroke-width="0.73" d="M539.36,-1432.09C539.18,-1465.26 538.86,-1523.63 538.66,-1559.06"/>
<polygon fill="#0c698b" stroke="#0c698b" stroke-width="0.73" points="537.16,-1559.39 538.64,-1563.69 540.17,-1559.4 537.16,-1559.39"/>
<text text-anchor="middle" x="556.5" y="-1501" font-family="Arial" font-size="10.00" fill="#0c698b">18.37%</text>
<text text-anchor="middle" x="556.5" y="-1490" font-family="Arial" font-size="10.00" fill="#0c698b">192×</text>
</g>
<!-- 1090&#45;&gt;3217 -->
<g id="edge12" class="edge">
<title>1090&#45;&gt;3217</title>
<path fill="none" stroke="#0d0d73" stroke-width="0.5" d="M544.12,-1432.08C547.2,-1442.76 552.26,-1454.65 560.5,-1463 564.92,-1467.49 574.68,-1472.38 586.11,-1477.02"/>
<polygon fill="#0d0d73" stroke="#0d0d73" stroke-width="0.5" points="585.68,-1478.17 589.38,-1478.32 586.58,-1475.89 585.68,-1478.17"/>
<text text-anchor="middle" x="574.5" y="-1455" font-family="Arial" font-size="10.00" fill="#0d0d73">0.13%</text>
<text text-anchor="middle" x="574.5" y="-1444" font-family="Arial" font-size="10.00" fill="#0d0d73">192×</text>
</g>
<!-- 3217&#45;&gt;417 -->
<g id="edge16" class="edge">
<title>3217&#45;&gt;417</title>
<path fill="none" stroke="#0c8891" stroke-width="0.93" d="M649.41,-1524.4C650.61,-1548.3 650.89,-1584.95 644.5,-1616 642.05,-1627.87 637.57,-1640.36 633,-1651.19"/>
<polygon fill="#0c8891" stroke="#0c8891" stroke-width="0.93" points="631.41,-1650.64 631.05,-1655.72 634.49,-1651.98 631.41,-1650.64"/>
<text text-anchor="middle" x="667.5" y="-1593" font-family="Arial" font-size="10.00" fill="#0c8891">23.27%</text>
<text text-anchor="middle" x="667.5" y="-1582" font-family="Arial" font-size="10.00" fill="#0c8891">48×</text>
</g>
<!-- 3217&#45;&gt;703 -->
<g id="edge17" class="edge">
<title>3217&#45;&gt;703</title>
<path fill="none" stroke="#0c5586" stroke-width="0.59" d="M647.5,-1471.93C647.5,-1460.91 647.5,-1447.88 647.5,-1436.4"/>
<polygon fill="#0c5586" stroke="#0c5586" stroke-width="0.59" points="648.87,-1436.15 647.5,-1432.25 646.14,-1436.15 648.87,-1436.15"/>
<text text-anchor="middle" x="664.5" y="-1455" font-family="Arial" font-size="10.00" fill="#0c5586">14.83%</text>
<text text-anchor="middle" x="664.5" y="-1444" font-family="Arial" font-size="10.00" fill="#0c5586">13920×</text>
</g>
<!-- 3217&#45;&gt;1090 -->
<g id="edge18" class="edge">
<title>3217&#45;&gt;1090</title>
<path fill="none" stroke="#0c8691" stroke-width="0.92" d="M620.76,-1471.89C607.7,-1459.74 593.35,-1446.59 586.5,-1441 584.14,-1439.08 581.69,-1437.14 579.2,-1435.21"/>
<polygon fill="#0c8691" stroke="#0c8691" stroke-width="0.92" points="580.08,-1433.77 575.25,-1432.19 578.04,-1436.44 580.08,-1433.77"/>
<text text-anchor="middle" x="628.5" y="-1455" font-family="Arial" font-size="10.00" fill="#0c8691">22.95%</text>
<text text-anchor="middle" x="628.5" y="-1444" font-family="Arial" font-size="10.00" fill="#0c8691">192×</text>
</g>
<!-- 3400 -->
<g id="node23" class="node">
<title>3400</title>
<g id="a_node23"><a xlink:title="/usr/lib/python3/dist&#45;packages/matplotlib/collections.py">
<polygon fill="#0c5f88" stroke="#0c5f88" points="815.5,-1432 709.5,-1432 709.5,-1380 815.5,-1380 815.5,-1432"/>
<text text-anchor="middle" x="762.5" y="-1420" font-family="Arial" font-size="10.00" fill="#ffffff">collections:863:draw</text>
<text text-anchor="middle" x="762.5" y="-1409" font-family="Arial" font-size="10.00" fill="#ffffff">16.64%</text>
<text text-anchor="middle" x="762.5" y="-1398" font-family="Arial" font-size="10.00" fill="#ffffff">(0.14%)</text>
<text text-anchor="middle" x="762.5" y="-1387" font-family="Arial" font-size="10.00" fill="#ffffff">13920×</text>
</a>
</g>
</g>
<!-- 3217&#45;&gt;3400 -->
<g id="edge19" class="edge">
<title>3217&#45;&gt;3400</title>
<path fill="none" stroke="#0c5f88" stroke-width="0.67" d="M675.39,-1471.75C686.67,-1461.86 699.97,-1450.61 712.5,-1441 715.25,-1438.89 718.13,-1436.75 721.05,-1434.64"/>
<polygon fill="#0c5f88" stroke="#0c5f88" stroke-width="0.67" points="722,-1435.72 724.5,-1432.17 720.33,-1433.39 722,-1435.72"/>
<text text-anchor="middle" x="729.5" y="-1455" font-family="Arial" font-size="10.00" fill="#0c5f88">16.64%</text>
<text text-anchor="middle" x="729.5" y="-1444" font-family="Arial" font-size="10.00" fill="#0c5f88">13920×</text>
</g>
<!-- 3367&#45;&gt;354 -->
<g id="edge21" class="edge">
<title>3367&#45;&gt;354</title>
<path fill="none" stroke="#0c8791" stroke-width="0.92" d="M244.5,-1195.93C244.5,-1185.2 244.5,-1172.56 244.5,-1161.31"/>
<polygon fill="#0c8791" stroke="#0c8791" stroke-width="0.92" points="246.18,-1161.05 244.5,-1156.25 242.82,-1161.05 246.18,-1161.05"/>
<text text-anchor="middle" x="261.5" y="-1179" font-family="Arial" font-size="10.00" fill="#0c8791">23.09%</text>
<text text-anchor="middle" x="261.5" y="-1168" font-family="Arial" font-size="10.00" fill="#0c8791">580×</text>
</g>
<!-- 3213 -->
<g id="node21" class="node">
<title>3213</title>
<g id="a_node21"><a xlink:title="/usr/lib/python3/dist&#45;packages/matplotlib/backends/_backend_tk.py">
<polygon fill="#0c6e8c" stroke="#0c6e8c" points="500.5,-696 318.5,-696 318.5,-644 500.5,-644 500.5,-696"/>
<text text-anchor="middle" x="409.5" y="-684" font-family="Arial" font-size="10.00" fill="#ffffff">_backend_tk:351:motion_notify_event</text>
<text text-anchor="middle" x="409.5" y="-673" font-family="Arial" font-size="10.00" fill="#ffffff">19.10%</text>
<text text-anchor="middle" x="409.5" y="-662" font-family="Arial" font-size="10.00" fill="#ffffff">(0.01%)</text>
<text text-anchor="middle" x="409.5" y="-651" font-family="Arial" font-size="10.00" fill="#ffffff">282×</text>
</a>
</g>
</g>
<!-- 3273 -->
<g id="node22" class="node">
<title>3273</title>
<g id="a_node22"><a xlink:title="/usr/lib/python3/dist&#45;packages/matplotlib/backend_bases.py">
<polygon fill="#0c6d8c" stroke="#0c6d8c" points="509.5,-604 309.5,-604 309.5,-552 509.5,-552 509.5,-604"/>
<text text-anchor="middle" x="409.5" y="-592" font-family="Arial" font-size="10.00" fill="#ffffff">backend_bases:1780:motion_notify_event</text>
<text text-anchor="middle" x="409.5" y="-581" font-family="Arial" font-size="10.00" fill="#ffffff">19.08%</text>
<text text-anchor="middle" x="409.5" y="-570" font-family="Arial" font-size="10.00" fill="#ffffff">(0.01%)</text>
<text text-anchor="middle" x="409.5" y="-559" font-family="Arial" font-size="10.00" fill="#ffffff">282×</text>
</a>
</g>
</g>
<!-- 3213&#45;&gt;3273 -->
<g id="edge15" class="edge">
<title>3213&#45;&gt;3273</title>
<path fill="none" stroke="#0c6d8c" stroke-width="0.76" d="M409.5,-643.93C409.5,-633 409.5,-620.11 409.5,-608.7"/>
<polygon fill="#0c6d8c" stroke="#0c6d8c" stroke-width="0.76" points="411.04,-608.65 409.5,-604.25 407.96,-608.65 411.04,-608.65"/>
<text text-anchor="middle" x="426.5" y="-627" font-family="Arial" font-size="10.00" fill="#0c6d8c">19.08%</text>
<text text-anchor="middle" x="426.5" y="-616" font-family="Arial" font-size="10.00" fill="#0c6d8c">282×</text>
</g>
<!-- 3273&#45;&gt;173 -->
<g id="edge20" class="edge">
<title>3273&#45;&gt;173</title>
<path fill="none" stroke="#0d1a77" stroke-width="0.5" d="M409.5,-551.93C409.5,-540.71 409.5,-527.42 409.5,-515.8"/>
<polygon fill="#0d1a77" stroke="#0d1a77" stroke-width="0.5" points="410.73,-515.75 409.5,-512.25 408.28,-515.75 410.73,-515.75"/>
<text text-anchor="middle" x="423.5" y="-535" font-family="Arial" font-size="10.00" fill="#0d1a77">3.21%</text>
<text text-anchor="middle" x="423.5" y="-524" font-family="Arial" font-size="10.00" fill="#0d1a77">282×</text>
</g>
<!-- 3400&#45;&gt;3217 -->
<g id="edge22" class="edge">
<title>3400&#45;&gt;3217</title>
<path fill="none" stroke="#0d367f" stroke-width="0.5" d="M759.46,-1432.16C757,-1442.85 752.55,-1454.73 744.5,-1463 734.8,-1472.96 722.02,-1480 708.94,-1484.99"/>
<polygon fill="#0d367f" stroke="#0d367f" stroke-width="0.5" points="708.47,-1483.85 705.6,-1486.21 709.31,-1486.15 708.47,-1483.85"/>
<text text-anchor="middle" x="773" y="-1455" font-family="Arial" font-size="10.00" fill="#0d367f">9.16%</text>
<text text-anchor="middle" x="773" y="-1444" font-family="Arial" font-size="10.00" fill="#0d367f">13920×</text>
</g>
<!-- 3452 -->
<g id="node25" class="node">
<title>3452</title>
<g id="a_node25"><a xlink:title="/usr/lib/python3/dist&#45;packages/matplotlib/cbook/deprecation.py">
<polygon fill="#0c9b7b" stroke="#0c9b7b" points="471,-1248 348,-1248 348,-1196 471,-1196 471,-1248"/>
<text text-anchor="middle" x="409.5" y="-1236" font-family="Arial" font-size="10.00" fill="#ffffff">deprecation:404:wrapper</text>
<text text-anchor="middle" x="409.5" y="-1225" font-family="Arial" font-size="10.00" fill="#ffffff">30.47%</text>
<text text-anchor="middle" x="409.5" y="-1214" font-family="Arial" font-size="10.00" fill="#ffffff">(0.00%)</text>
<text text-anchor="middle" x="409.5" y="-1203" font-family="Arial" font-size="10.00" fill="#ffffff">1×</text>
</a>
</g>
</g>
<!-- 3451&#45;&gt;3452 -->
<g id="edge24" class="edge">
<title>3451&#45;&gt;3452</title>
<path fill="none" stroke="#0c9b7b" stroke-width="1.22" d="M409.5,-1287.93C409.5,-1277.39 409.5,-1265.02 409.5,-1253.92"/>
<polygon fill="#0c9b7b" stroke="#0c9b7b" stroke-width="1.22" points="411.43,-1253.75 409.5,-1248.25 407.58,-1253.75 411.43,-1253.75"/>
<text text-anchor="middle" x="426.5" y="-1271" font-family="Arial" font-size="10.00" fill="#0c9b7b">30.47%</text>
<text text-anchor="middle" x="426.5" y="-1260" font-family="Arial" font-size="10.00" fill="#0c9b7b">1×</text>
</g>
<!-- 3452&#45;&gt;942 -->
<g id="edge25" class="edge">
<title>3452&#45;&gt;942</title>
<path fill="none" stroke="#0c9b7b" stroke-width="1.22" d="M409.5,-1195.93C409.5,-1185.39 409.5,-1173.02 409.5,-1161.92"/>
<polygon fill="#0c9b7b" stroke="#0c9b7b" stroke-width="1.22" points="411.43,-1161.75 409.5,-1156.25 407.58,-1161.75 411.43,-1161.75"/>
<text text-anchor="middle" x="426.5" y="-1179" font-family="Arial" font-size="10.00" fill="#0c9b7b">30.47%</text>
<text text-anchor="middle" x="426.5" y="-1168" font-family="Arial" font-size="10.00" fill="#0c9b7b">1×</text>
</g>
<!-- 3458 -->
<g id="node27" class="node">
<title>3458</title>
<polygon fill="#0c9b7b" stroke="#0c9b7b" points="443,-880 376,-880 376,-828 443,-828 443,-880"/>
<text text-anchor="middle" x="409.5" y="-868" font-family="Arial" font-size="10.00" fill="#ffffff">:0:mainloop</text>
<text text-anchor="middle" x="409.5" y="-857" font-family="Arial" font-size="10.00" fill="#ffffff">30.47%</text>
<text text-anchor="middle" x="409.5" y="-846" font-family="Arial" font-size="10.00" fill="#ffffff">(2.11%)</text>
<text text-anchor="middle" x="409.5" y="-835" font-family="Arial" font-size="10.00" fill="#ffffff">1×</text>
</g>
<!-- 3457&#45;&gt;3458 -->
<g id="edge27" class="edge">
<title>3457&#45;&gt;3458</title>
<path fill="none" stroke="#0c9b7b" stroke-width="1.22" d="M409.5,-919.93C409.5,-909.39 409.5,-897.02 409.5,-885.92"/>
<polygon fill="#0c9b7b" stroke="#0c9b7b" stroke-width="1.22" points="411.43,-885.75 409.5,-880.25 407.58,-885.75 411.43,-885.75"/>
<text text-anchor="middle" x="426.5" y="-903" font-family="Arial" font-size="10.00" fill="#0c9b7b">30.47%</text>
<text text-anchor="middle" x="426.5" y="-892" font-family="Arial" font-size="10.00" fill="#0c9b7b">1×</text>
</g>
<!-- 3459 -->
<g id="node28" class="node">
<title>3459</title>
<g id="a_node28"><a xlink:title="/usr/lib/python3.8/tkinter/__init__.py">
<polygon fill="#0c9885" stroke="#0c9885" points="466,-788 353,-788 353,-736 466,-736 466,-788"/>
<text text-anchor="middle" x="409.5" y="-776" font-family="Arial" font-size="10.00" fill="#ffffff">__init__:1887:__call__</text>
<text text-anchor="middle" x="409.5" y="-765" font-family="Arial" font-size="10.00" fill="#ffffff">28.36%</text>
<text text-anchor="middle" x="409.5" y="-754" font-family="Arial" font-size="10.00" fill="#ffffff">(0.02%)</text>
<text text-anchor="middle" x="409.5" y="-743" font-family="Arial" font-size="10.00" fill="#ffffff">350×</text>
</a>
</g>
</g>
<!-- 3458&#45;&gt;3459 -->
<g id="edge28" class="edge">
<title>3458&#45;&gt;3459</title>
<path fill="none" stroke="#0c9493" d="M409.5,-827.93C409.5,-817.2 409.5,-804.56 409.5,-793.31"/>
<polygon fill="#0c9493" stroke="#0c9493" points="411.25,-793.25 409.5,-788.25 407.75,-793.25 411.25,-793.25"/>
<text text-anchor="middle" x="426.5" y="-811" font-family="Arial" font-size="10.00" fill="#0c9493">25.12%</text>
<text text-anchor="middle" x="426.5" y="-800" font-family="Arial" font-size="10.00" fill="#0c9493">310×</text>
</g>
<!-- 3459&#45;&gt;3213 -->
<g id="edge29" class="edge">
<title>3459&#45;&gt;3213</title>
<path fill="none" stroke="#0c6e8c" stroke-width="0.76" d="M409.5,-735.93C409.5,-725 409.5,-712.11 409.5,-700.7"/>
<polygon fill="#0c6e8c" stroke="#0c6e8c" stroke-width="0.76" points="411.04,-700.65 409.5,-696.25 407.96,-700.65 411.04,-700.65"/>
<text text-anchor="middle" x="426.5" y="-719" font-family="Arial" font-size="10.00" fill="#0c6e8c">19.10%</text>
<text text-anchor="middle" x="426.5" y="-708" font-family="Arial" font-size="10.00" fill="#0c6e8c">282×</text>
</g>
<!-- 3470 -->
<g id="node30" class="node">
<title>3470</title>
<g id="a_node30"><a xlink:title="/usr/lib/python3/dist&#45;packages/matplotlib/backends/backend_agg.py">
<polygon fill="#0c8991" stroke="#0c8991" points="468,-52 351,-52 351,0 468,0 468,-52"/>
<text text-anchor="middle" x="409.5" y="-40" font-family="Arial" font-size="10.00" fill="#ffffff">backend_agg:382:draw</text>
<text text-anchor="middle" x="409.5" y="-29" font-family="Arial" font-size="10.00" fill="#ffffff">23.41%</text>
<text text-anchor="middle" x="409.5" y="-18" font-family="Arial" font-size="10.00" fill="#ffffff">(0.00%)</text>
<text text-anchor="middle" x="409.5" y="-7" font-family="Arial" font-size="10.00" fill="#ffffff">48×</text>
</a>
</g>
</g>
<!-- 3467&#45;&gt;3470 -->
<g id="edge30" class="edge">
<title>3467&#45;&gt;3470</title>
<path fill="none" stroke="#0c8991" stroke-width="0.94" d="M409.5,-91.93C409.5,-81.2 409.5,-68.56 409.5,-57.31"/>
<polygon fill="#0c8991" stroke="#0c8991" stroke-width="0.94" points="411.18,-57.05 409.5,-52.25 407.82,-57.05 411.18,-57.05"/>
<text text-anchor="middle" x="426.5" y="-75" font-family="Arial" font-size="10.00" fill="#0c8991">23.41%</text>
<text text-anchor="middle" x="426.5" y="-64" font-family="Arial" font-size="10.00" fill="#0c8991">48×</text>
</g>
</g>
</svg>
