<?xml version="1.0" encoding="UTF-8" standalone="no"?>
<!DOCTYPE svg PUBLIC "-//W3C//DTD SVG 1.1//EN"
 "http://www.w3.org/Graphics/SVG/1.1/DTD/svg11.dtd">
<!-- Generated by graphviz version 2.43.0 (0)
 -->
<!-- Title: %3 Pages: 1 -->
<svg width="549pt" height="796pt"
 viewBox="0.00 0.00 549.00 796.00" xmlns="http://www.w3.org/2000/svg" xmlns:xlink="http://www.w3.org/1999/xlink">
<g id="graph0" class="graph" transform="scale(1 1) rotate(0) translate(4 792)">
<title>%3</title>
<polygon fill="white" stroke="transparent" points="-4,4 -4,-792 545,-792 545,4 -4,4"/>
<!-- 166 -->
<g id="node1" class="node">
<title>166</title>
<g id="a_node1"><a xlink:title="/usr/lib/python3/dist&#45;packages/matplotlib/axes/_base.py">
<polygon fill="#45c108" stroke="#45c108" points="302,-236 165,-236 165,-184 302,-184 302,-236"/>
<text text-anchor="middle" x="233.5" y="-224" font-family="Arial" font-size="10.00" fill="#ffffff">_base:2388:autoscale_view</text>
<text text-anchor="middle" x="233.5" y="-213" font-family="Arial" font-size="10.00" fill="#ffffff">58.21%</text>
<text text-anchor="middle" x="233.5" y="-202" font-family="Arial" font-size="10.00" fill="#ffffff">(0.18%)</text>
<text text-anchor="middle" x="233.5" y="-191" font-family="Arial" font-size="10.00" fill="#ffffff">14768×</text>
</a>
</g>
</g>
<!-- 368 -->
<g id="node2" class="node">
<title>368</title>
<g id="a_node2"><a xlink:title="/usr/lib/python3/dist&#45;packages/matplotlib/axes/_base.py">
<polygon fill="#0d3d80" stroke="#0d3d80" points="164.5,-144 12.5,-144 12.5,-92 164.5,-92 164.5,-144"/>
<text text-anchor="middle" x="88.5" y="-132" font-family="Arial" font-size="10.00" fill="#ffffff">_base:2425:handle_single_axis</text>
<text text-anchor="middle" x="88.5" y="-121" font-family="Arial" font-size="10.00" fill="#ffffff">10.40%</text>
<text text-anchor="middle" x="88.5" y="-110" font-family="Arial" font-size="10.00" fill="#ffffff">(0.76%)</text>
<text text-anchor="middle" x="88.5" y="-99" font-family="Arial" font-size="10.00" fill="#ffffff">29536×</text>
</a>
</g>
</g>
<!-- 166&#45;&gt;368 -->
<g id="edge1" class="edge">
<title>166&#45;&gt;368</title>
<path fill="none" stroke="#0d3d80" stroke-width="0.5" d="M193.11,-183.93C174.18,-172.18 151.58,-158.16 132.25,-146.15"/>
<polygon fill="#0d3d80" stroke="#0d3d80" stroke-width="0.5" points="132.54,-144.9 128.93,-144.09 131.25,-146.98 132.54,-144.9"/>
<text text-anchor="middle" x="195.5" y="-167" font-family="Arial" font-size="10.00" fill="#0d3d80">10.40%</text>
<text text-anchor="middle" x="195.5" y="-156" font-family="Arial" font-size="10.00" fill="#0d3d80">29536×</text>
</g>
<!-- 1951 -->
<g id="node3" class="node">
<title>1951</title>
<g id="a_node3"><a xlink:title="/usr/lib/python3/dist&#45;packages/matplotlib/axes/_base.py">
<polygon fill="#0c9982" stroke="#0c9982" points="293,-144 174,-144 174,-92 293,-92 293,-144"/>
<text text-anchor="middle" x="233.5" y="-132" font-family="Arial" font-size="10.00" fill="#ffffff">_base:2415:&lt;listcomp&gt;</text>
<text text-anchor="middle" x="233.5" y="-121" font-family="Arial" font-size="10.00" fill="#ffffff">28.99%</text>
<text text-anchor="middle" x="233.5" y="-110" font-family="Arial" font-size="10.00" fill="#ffffff">(11.98%)</text>
<text text-anchor="middle" x="233.5" y="-99" font-family="Arial" font-size="10.00" fill="#ffffff">14768×</text>
</a>
</g>
</g>
<!-- 166&#45;&gt;1951 -->
<g id="edge2" class="edge">
<title>166&#45;&gt;1951</title>
<path fill="none" stroke="#0c9982" stroke-width="1.16" d="M233.5,-183.93C233.5,-173.39 233.5,-161.02 233.5,-149.92"/>
<polygon fill="#0c9982" stroke="#0c9982" stroke-width="1.16" points="235.39,-149.65 233.5,-144.25 231.61,-149.65 235.39,-149.65"/>
<text text-anchor="middle" x="250.5" y="-167" font-family="Arial" font-size="10.00" fill="#0c9982">28.99%</text>
<text text-anchor="middle" x="250.5" y="-156" font-family="Arial" font-size="10.00" fill="#0c9982">14768×</text>
</g>
<!-- 1950 -->
<g id="node16" class="node">
<title>1950</title>
<g id="a_node16"><a xlink:title="/usr/lib/python3/dist&#45;packages/matplotlib/artist.py">
<polygon fill="#0c6189" stroke="#0c6189" points="295,-52 172,-52 172,0 295,0 295,-52"/>
<text text-anchor="middle" x="233.5" y="-40" font-family="Arial" font-size="10.00" fill="#ffffff">artist:1020:sticky_edges</text>
<text text-anchor="middle" x="233.5" y="-29" font-family="Arial" font-size="10.00" fill="#ffffff">17.01%</text>
<text text-anchor="middle" x="233.5" y="-18" font-family="Arial" font-size="10.00" fill="#ffffff">(17.01%)</text>
<text text-anchor="middle" x="233.5" y="-7" font-family="Arial" font-size="10.00" fill="#ffffff">109158401×</text>
</a>
</g>
</g>
<!-- 1951&#45;&gt;1950 -->
<g id="edge14" class="edge">
<title>1951&#45;&gt;1950</title>
<path fill="none" stroke="#0c6189" stroke-width="0.68" d="M233.5,-91.93C233.5,-80.91 233.5,-67.88 233.5,-56.4"/>
<polygon fill="#0c6189" stroke="#0c6189" stroke-width="0.68" points="234.94,-56.35 233.5,-52.25 232.07,-56.35 234.94,-56.35"/>
<text text-anchor="middle" x="260.5" y="-75" font-family="Arial" font-size="10.00" fill="#0c6189">17.01%</text>
<text text-anchor="middle" x="260.5" y="-64" font-family="Arial" font-size="10.00" fill="#0c6189">109157681×</text>
</g>
<!-- 334 -->
<g id="node4" class="node">
<title>334</title>
<g id="a_node4"><a xlink:title="main.py">
<polygon fill="#ff0000" stroke="#ff0000" points="290.5,-696 198.5,-696 198.5,-644 290.5,-644 290.5,-696"/>
<text text-anchor="middle" x="244.5" y="-684" font-family="Arial" font-size="10.00" fill="#ffffff">main:1:&lt;module&gt;</text>
<text text-anchor="middle" x="244.5" y="-673" font-family="Arial" font-size="10.00" fill="#ffffff">100.00%</text>
<text text-anchor="middle" x="244.5" y="-662" font-family="Arial" font-size="10.00" fill="#ffffff">(0.08%)</text>
<text text-anchor="middle" x="244.5" y="-651" font-family="Arial" font-size="10.00" fill="#ffffff">1×</text>
</a>
</g>
</g>
<!-- 341 -->
<g id="node5" class="node">
<title>341</title>
<g id="a_node5"><a xlink:title="/home/michel/Documentos/git/zigue_zague_tcc/zigue_zague_oo/ziguezague.py">
<polygon fill="#0d3c80" stroke="#0d3c80" points="155,-604 0,-604 0,-552 155,-552 155,-604"/>
<text text-anchor="middle" x="77.5" y="-592" font-family="Arial" font-size="10.00" fill="#ffffff">ziguezague:212:distintasProbas</text>
<text text-anchor="middle" x="77.5" y="-581" font-family="Arial" font-size="10.00" fill="#ffffff">10.36%</text>
<text text-anchor="middle" x="77.5" y="-570" font-family="Arial" font-size="10.00" fill="#ffffff">(10.36%)</text>
<text text-anchor="middle" x="77.5" y="-559" font-family="Arial" font-size="10.00" fill="#ffffff">1×</text>
</a>
</g>
</g>
<!-- 334&#45;&gt;341 -->
<g id="edge3" class="edge">
<title>334&#45;&gt;341</title>
<path fill="none" stroke="#0d3c80" stroke-width="0.5" d="M198.42,-644.17C176.34,-632.27 149.85,-617.99 127.3,-605.84"/>
<polygon fill="#0d3c80" stroke="#0d3c80" stroke-width="0.5" points="127.67,-604.64 124,-604.06 126.5,-606.8 127.67,-604.64"/>
<text text-anchor="middle" x="198.5" y="-627" font-family="Arial" font-size="10.00" fill="#0d3c80">10.36%</text>
<text text-anchor="middle" x="198.5" y="-616" font-family="Arial" font-size="10.00" fill="#0d3c80">1×</text>
</g>
<!-- 342 -->
<g id="node6" class="node">
<title>342</title>
<g id="a_node6"><a xlink:title="/home/michel/Documentos/git/zigue_zague_tcc/zigue_zague_oo/ziguezague.py">
<polygon fill="#ddc905" stroke="#ddc905" points="325,-604 164,-604 164,-552 325,-552 325,-604"/>
<text text-anchor="middle" x="244.5" y="-592" font-family="Arial" font-size="10.00" fill="#ffffff">ziguezague:240:imprimeCaminho</text>
<text text-anchor="middle" x="244.5" y="-581" font-family="Arial" font-size="10.00" fill="#ffffff">77.27%</text>
<text text-anchor="middle" x="244.5" y="-570" font-family="Arial" font-size="10.00" fill="#ffffff">(0.15%)</text>
<text text-anchor="middle" x="244.5" y="-559" font-family="Arial" font-size="10.00" fill="#ffffff">14768×</text>
</a>
</g>
</g>
<!-- 334&#45;&gt;342 -->
<g id="edge4" class="edge">
<title>334&#45;&gt;342</title>
<path fill="none" stroke="#ddc905" stroke-width="3.09" d="M244.5,-643.93C244.5,-634.45 244.5,-623.5 244.5,-613.32"/>
<polygon fill="#ddc905" stroke="#ddc905" stroke-width="3.09" points="247.58,-613.05 244.5,-604.25 241.42,-613.05 247.58,-613.05"/>
<text text-anchor="middle" x="261.5" y="-627" font-family="Arial" font-size="10.00" fill="#ddc905">77.27%</text>
<text text-anchor="middle" x="261.5" y="-616" font-family="Arial" font-size="10.00" fill="#ddc905">14768×</text>
</g>
<!-- 1881 -->
<g id="node7" class="node">
<title>1881</title>
<g id="a_node7"><a xlink:title="/home/michel/Documentos/git/zigue_zague_tcc/zigue_zague_oo/ziguezague.py">
<polygon fill="#0d3f81" stroke="#0d3f81" points="497,-604 346,-604 346,-552 497,-552 497,-604"/>
<text text-anchor="middle" x="421.5" y="-592" font-family="Arial" font-size="10.00" fill="#ffffff">ziguezague:253:configGraficos</text>
<text text-anchor="middle" x="421.5" y="-581" font-family="Arial" font-size="10.00" fill="#ffffff">10.89%</text>
<text text-anchor="middle" x="421.5" y="-570" font-family="Arial" font-size="10.00" fill="#ffffff">(0.00%)</text>
<text text-anchor="middle" x="421.5" y="-559" font-family="Arial" font-size="10.00" fill="#ffffff">2×</text>
</a>
</g>
</g>
<!-- 334&#45;&gt;1881 -->
<g id="edge5" class="edge">
<title>334&#45;&gt;1881</title>
<path fill="none" stroke="#0d3f81" stroke-width="0.5" d="M290.54,-645.59C314.56,-633.38 344.04,-618.38 368.95,-605.72"/>
<polygon fill="#0d3f81" stroke="#0d3f81" stroke-width="0.5" points="369.71,-606.71 372.28,-604.03 368.6,-604.52 369.71,-606.71"/>
<text text-anchor="middle" x="371.5" y="-627" font-family="Arial" font-size="10.00" fill="#0d3f81">10.89%</text>
<text text-anchor="middle" x="371.5" y="-616" font-family="Arial" font-size="10.00" fill="#0d3f81">2×</text>
</g>
<!-- 1880 -->
<g id="node8" class="node">
<title>1880</title>
<g id="a_node8"><a xlink:title="/usr/lib/python3/dist&#45;packages/matplotlib/pyplot.py">
<polygon fill="#dccb05" stroke="#dccb05" points="288.5,-512 188.5,-512 188.5,-460 288.5,-460 288.5,-512"/>
<text text-anchor="middle" x="238.5" y="-500" font-family="Arial" font-size="10.00" fill="#ffffff">pyplot:2831:scatter</text>
<text text-anchor="middle" x="238.5" y="-489" font-family="Arial" font-size="10.00" fill="#ffffff">77.00%</text>
<text text-anchor="middle" x="238.5" y="-478" font-family="Arial" font-size="10.00" fill="#ffffff">(0.09%)</text>
<text text-anchor="middle" x="238.5" y="-467" font-family="Arial" font-size="10.00" fill="#ffffff">14768×</text>
</a>
</g>
</g>
<!-- 342&#45;&gt;1880 -->
<g id="edge6" class="edge">
<title>342&#45;&gt;1880</title>
<path fill="none" stroke="#dccb05" stroke-width="3.08" d="M242.83,-551.93C242.2,-542.45 241.47,-531.5 240.79,-521.32"/>
<polygon fill="#dccb05" stroke="#dccb05" stroke-width="3.08" points="243.84,-520.82 240.18,-512.25 237.7,-521.23 243.84,-520.82"/>
<text text-anchor="middle" x="259.5" y="-535" font-family="Arial" font-size="10.00" fill="#dccb05">77.00%</text>
<text text-anchor="middle" x="259.5" y="-524" font-family="Arial" font-size="10.00" fill="#dccb05">14768×</text>
</g>
<!-- 1973 -->
<g id="node15" class="node">
<title>1973</title>
<g id="a_node15"><a xlink:title="/usr/lib/python3/dist&#45;packages/matplotlib/pyplot.py">
<polygon fill="#0d3f81" stroke="#0d3f81" points="465.5,-512 377.5,-512 377.5,-460 465.5,-460 465.5,-512"/>
<text text-anchor="middle" x="421.5" y="-500" font-family="Arial" font-size="10.00" fill="#ffffff">pyplot:251:show</text>
<text text-anchor="middle" x="421.5" y="-489" font-family="Arial" font-size="10.00" fill="#ffffff">10.85%</text>
<text text-anchor="middle" x="421.5" y="-478" font-family="Arial" font-size="10.00" fill="#ffffff">(0.00%)</text>
<text text-anchor="middle" x="421.5" y="-467" font-family="Arial" font-size="10.00" fill="#ffffff">2×</text>
</a>
</g>
</g>
<!-- 1881&#45;&gt;1973 -->
<g id="edge13" class="edge">
<title>1881&#45;&gt;1973</title>
<path fill="none" stroke="#0d3f81" stroke-width="0.5" d="M421.5,-551.93C421.5,-540.71 421.5,-527.42 421.5,-515.8"/>
<polygon fill="#0d3f81" stroke="#0d3f81" stroke-width="0.5" points="422.73,-515.75 421.5,-512.25 420.28,-515.75 422.73,-515.75"/>
<text text-anchor="middle" x="438.5" y="-535" font-family="Arial" font-size="10.00" fill="#0d3f81">10.85%</text>
<text text-anchor="middle" x="438.5" y="-524" font-family="Arial" font-size="10.00" fill="#0d3f81">2×</text>
</g>
<!-- 1213 -->
<g id="node11" class="node">
<title>1213</title>
<g id="a_node11"><a xlink:title="/usr/lib/python3/dist&#45;packages/matplotlib/__init__.py">
<polygon fill="#d9da06" stroke="#d9da06" points="283.5,-420 185.5,-420 185.5,-368 283.5,-368 283.5,-420"/>
<text text-anchor="middle" x="234.5" y="-408" font-family="Arial" font-size="10.00" fill="#ffffff">__init__:1598:inner</text>
<text text-anchor="middle" x="234.5" y="-397" font-family="Arial" font-size="10.00" fill="#ffffff">74.99%</text>
<text text-anchor="middle" x="234.5" y="-386" font-family="Arial" font-size="10.00" fill="#ffffff">(0.09%)</text>
<text text-anchor="middle" x="234.5" y="-375" font-family="Arial" font-size="10.00" fill="#ffffff">14768×</text>
</a>
</g>
</g>
<!-- 1880&#45;&gt;1213 -->
<g id="edge12" class="edge">
<title>1880&#45;&gt;1213</title>
<path fill="none" stroke="#d9da06" stroke-width="3" d="M237.39,-459.93C236.96,-450.36 236.47,-439.27 236.01,-429"/>
<polygon fill="#d9da06" stroke="#d9da06" stroke-width="3" points="239.05,-428.8 235.62,-420.25 232.97,-429.07 239.05,-428.8"/>
<text text-anchor="middle" x="254.5" y="-443" font-family="Arial" font-size="10.00" fill="#d9da06">74.99%</text>
<text text-anchor="middle" x="254.5" y="-432" font-family="Arial" font-size="10.00" fill="#d9da06">14768×</text>
</g>
<!-- 445 -->
<g id="node9" class="node">
<title>445</title>
<g id="a_node9"><a xlink:title="/usr/lib/python3/dist&#45;packages/matplotlib/axes/_axes.py">
<polygon fill="#d8d906" stroke="#d8d906" points="283,-328 184,-328 184,-276 283,-276 283,-328"/>
<text text-anchor="middle" x="233.5" y="-316" font-family="Arial" font-size="10.00" fill="#ffffff">_axes:4311:scatter</text>
<text text-anchor="middle" x="233.5" y="-305" font-family="Arial" font-size="10.00" fill="#ffffff">74.86%</text>
<text text-anchor="middle" x="233.5" y="-294" font-family="Arial" font-size="10.00" fill="#ffffff">(0.88%)</text>
<text text-anchor="middle" x="233.5" y="-283" font-family="Arial" font-size="10.00" fill="#ffffff">14768×</text>
</a>
</g>
</g>
<!-- 445&#45;&gt;166 -->
<g id="edge7" class="edge">
<title>445&#45;&gt;166</title>
<path fill="none" stroke="#45c108" stroke-width="2.33" d="M233.5,-275.93C233.5,-266.07 233.5,-254.6 233.5,-244.07"/>
<polygon fill="#45c108" stroke="#45c108" stroke-width="2.33" points="236.16,-243.85 233.5,-236.25 230.84,-243.85 236.16,-243.85"/>
<text text-anchor="middle" x="250.5" y="-259" font-family="Arial" font-size="10.00" fill="#45c108">58.21%</text>
<text text-anchor="middle" x="250.5" y="-248" font-family="Arial" font-size="10.00" fill="#45c108">14768×</text>
</g>
<!-- 711 -->
<g id="node10" class="node">
<title>711</title>
<g id="a_node10"><a xlink:title="~">
<polygon fill="#ff0000" stroke="#ff0000" points="328,-788 161,-788 161,-736 328,-736 328,-788"/>
<text text-anchor="middle" x="244.5" y="-776" font-family="Arial" font-size="10.00" fill="#ffffff">~:0:&lt;built&#45;in method builtins.exec&gt;</text>
<text text-anchor="middle" x="244.5" y="-765" font-family="Arial" font-size="10.00" fill="#ffffff">100.00%</text>
<text text-anchor="middle" x="244.5" y="-754" font-family="Arial" font-size="10.00" fill="#ffffff">(0.00%)</text>
<text text-anchor="middle" x="244.5" y="-743" font-family="Arial" font-size="10.00" fill="#ffffff">597×</text>
</a>
</g>
</g>
<!-- 711&#45;&gt;334 -->
<g id="edge8" class="edge">
<title>711&#45;&gt;334</title>
<path fill="none" stroke="#ff0000" stroke-width="4" d="M244.5,-735.93C244.5,-726.74 244.5,-716.17 244.5,-706.25"/>
<polygon fill="#ff0000" stroke="#ff0000" stroke-width="4" points="248,-706.25 244.5,-696.25 241,-706.25 248,-706.25"/>
<text text-anchor="middle" x="264" y="-719" font-family="Arial" font-size="10.00" fill="#ff0000">100.00%</text>
<text text-anchor="middle" x="264" y="-708" font-family="Arial" font-size="10.00" fill="#ff0000">1×</text>
</g>
<!-- 1213&#45;&gt;445 -->
<g id="edge9" class="edge">
<title>1213&#45;&gt;445</title>
<path fill="none" stroke="#d8d906" stroke-width="2.99" d="M234.22,-367.93C234.12,-358.36 233.99,-347.27 233.88,-337"/>
<polygon fill="#d8d906" stroke="#d8d906" stroke-width="2.99" points="236.92,-336.91 233.78,-328.25 230.83,-336.98 236.92,-336.91"/>
<text text-anchor="middle" x="251.5" y="-351" font-family="Arial" font-size="10.00" fill="#d8d906">74.86%</text>
<text text-anchor="middle" x="251.5" y="-340" font-family="Arial" font-size="10.00" fill="#d8d906">14768×</text>
</g>
<!-- 1242 -->
<g id="node12" class="node">
<title>1242</title>
<g id="a_node12"><a xlink:title="/usr/lib/python3/dist&#45;packages/matplotlib/backend_bases.py">
<polygon fill="#0d3f81" stroke="#0d3f81" points="489,-328 354,-328 354,-276 489,-276 489,-328"/>
<text text-anchor="middle" x="421.5" y="-316" font-family="Arial" font-size="10.00" fill="#ffffff">backend_bases:3276:show</text>
<text text-anchor="middle" x="421.5" y="-305" font-family="Arial" font-size="10.00" fill="#ffffff">10.85%</text>
<text text-anchor="middle" x="421.5" y="-294" font-family="Arial" font-size="10.00" fill="#ffffff">(0.00%)</text>
<text text-anchor="middle" x="421.5" y="-283" font-family="Arial" font-size="10.00" fill="#ffffff">2×</text>
</a>
</g>
</g>
<!-- 1352 -->
<g id="node13" class="node">
<title>1352</title>
<g id="a_node13"><a xlink:title="/usr/lib/python3/dist&#45;packages/matplotlib/backends/_backend_tk.py">
<polygon fill="#0d3f81" stroke="#0d3f81" points="488,-236 355,-236 355,-184 488,-184 488,-236"/>
<text text-anchor="middle" x="421.5" y="-224" font-family="Arial" font-size="10.00" fill="#ffffff">_backend_tk:977:mainloop</text>
<text text-anchor="middle" x="421.5" y="-213" font-family="Arial" font-size="10.00" fill="#ffffff">10.85%</text>
<text text-anchor="middle" x="421.5" y="-202" font-family="Arial" font-size="10.00" fill="#ffffff">(0.00%)</text>
<text text-anchor="middle" x="421.5" y="-191" font-family="Arial" font-size="10.00" fill="#ffffff">2×</text>
</a>
</g>
</g>
<!-- 1242&#45;&gt;1352 -->
<g id="edge10" class="edge">
<title>1242&#45;&gt;1352</title>
<path fill="none" stroke="#0d3f81" stroke-width="0.5" d="M421.5,-275.93C421.5,-264.71 421.5,-251.42 421.5,-239.8"/>
<polygon fill="#0d3f81" stroke="#0d3f81" stroke-width="0.5" points="422.73,-239.75 421.5,-236.25 420.28,-239.75 422.73,-239.75"/>
<text text-anchor="middle" x="438.5" y="-259" font-family="Arial" font-size="10.00" fill="#0d3f81">10.85%</text>
<text text-anchor="middle" x="438.5" y="-248" font-family="Arial" font-size="10.00" fill="#0d3f81">2×</text>
</g>
<!-- 2779 -->
<g id="node14" class="node">
<title>2779</title>
<g id="a_node14"><a xlink:title="/usr/lib/python3.8/tkinter/__init__.py">
<polygon fill="#0d3f81" stroke="#0d3f81" points="480.5,-144 364.5,-144 364.5,-92 480.5,-92 480.5,-144"/>
<text text-anchor="middle" x="422.5" y="-132" font-family="Arial" font-size="10.00" fill="#ffffff">__init__:1427:mainloop</text>
<text text-anchor="middle" x="422.5" y="-121" font-family="Arial" font-size="10.00" fill="#ffffff">10.85%</text>
<text text-anchor="middle" x="422.5" y="-110" font-family="Arial" font-size="10.00" fill="#ffffff">(0.00%)</text>
<text text-anchor="middle" x="422.5" y="-99" font-family="Arial" font-size="10.00" fill="#ffffff">2×</text>
</a>
</g>
</g>
<!-- 1352&#45;&gt;2779 -->
<g id="edge11" class="edge">
<title>1352&#45;&gt;2779</title>
<path fill="none" stroke="#0d3f81" stroke-width="0.5" d="M421.78,-183.93C421.9,-172.71 422.05,-159.42 422.18,-147.8"/>
<polygon fill="#0d3f81" stroke="#0d3f81" stroke-width="0.5" points="423.41,-147.76 422.22,-144.25 420.96,-147.73 423.41,-147.76"/>
<text text-anchor="middle" x="439.5" y="-167" font-family="Arial" font-size="10.00" fill="#0d3f81">10.85%</text>
<text text-anchor="middle" x="439.5" y="-156" font-family="Arial" font-size="10.00" fill="#0d3f81">2×</text>
</g>
<!-- 2785 -->
<g id="node18" class="node">
<title>2785</title>
<g id="a_node18"><a xlink:title="~">
<polygon fill="#0d3f81" stroke="#0d3f81" points="541,-52 304,-52 304,0 541,0 541,-52"/>
<text text-anchor="middle" x="422.5" y="-40" font-family="Arial" font-size="10.00" fill="#ffffff">~:0:&lt;method &#39;mainloop&#39; of &#39;_tkinter.tkapp&#39; objects&gt;</text>
<text text-anchor="middle" x="422.5" y="-29" font-family="Arial" font-size="10.00" fill="#ffffff">10.85%</text>
<text text-anchor="middle" x="422.5" y="-18" font-family="Arial" font-size="10.00" fill="#ffffff">(2.54%)</text>
<text text-anchor="middle" x="422.5" y="-7" font-family="Arial" font-size="10.00" fill="#ffffff">2×</text>
</a>
</g>
</g>
<!-- 2779&#45;&gt;2785 -->
<g id="edge17" class="edge">
<title>2779&#45;&gt;2785</title>
<path fill="none" stroke="#0d3f81" stroke-width="0.5" d="M422.5,-91.93C422.5,-80.71 422.5,-67.42 422.5,-55.8"/>
<polygon fill="#0d3f81" stroke="#0d3f81" stroke-width="0.5" points="423.73,-55.75 422.5,-52.25 421.28,-55.75 423.73,-55.75"/>
<text text-anchor="middle" x="439.5" y="-75" font-family="Arial" font-size="10.00" fill="#0d3f81">10.85%</text>
<text text-anchor="middle" x="439.5" y="-64" font-family="Arial" font-size="10.00" fill="#0d3f81">2×</text>
</g>
<!-- 2256 -->
<g id="node17" class="node">
<title>2256</title>
<g id="a_node17"><a xlink:title="/usr/lib/python3/dist&#45;packages/matplotlib/cbook/deprecation.py">
<polygon fill="#0d3f81" stroke="#0d3f81" points="483,-420 360,-420 360,-368 483,-368 483,-420"/>
<text text-anchor="middle" x="421.5" y="-408" font-family="Arial" font-size="10.00" fill="#ffffff">deprecation:404:wrapper</text>
<text text-anchor="middle" x="421.5" y="-397" font-family="Arial" font-size="10.00" fill="#ffffff">10.85%</text>
<text text-anchor="middle" x="421.5" y="-386" font-family="Arial" font-size="10.00" fill="#ffffff">(0.00%)</text>
<text text-anchor="middle" x="421.5" y="-375" font-family="Arial" font-size="10.00" fill="#ffffff">2×</text>
</a>
</g>
</g>
<!-- 1973&#45;&gt;2256 -->
<g id="edge15" class="edge">
<title>1973&#45;&gt;2256</title>
<path fill="none" stroke="#0d3f81" stroke-width="0.5" d="M421.5,-459.93C421.5,-448.71 421.5,-435.42 421.5,-423.8"/>
<polygon fill="#0d3f81" stroke="#0d3f81" stroke-width="0.5" points="422.73,-423.75 421.5,-420.25 420.28,-423.75 422.73,-423.75"/>
<text text-anchor="middle" x="438.5" y="-443" font-family="Arial" font-size="10.00" fill="#0d3f81">10.85%</text>
<text text-anchor="middle" x="438.5" y="-432" font-family="Arial" font-size="10.00" fill="#0d3f81">2×</text>
</g>
<!-- 2256&#45;&gt;1242 -->
<g id="edge16" class="edge">
<title>2256&#45;&gt;1242</title>
<path fill="none" stroke="#0d3f81" stroke-width="0.5" d="M421.5,-367.93C421.5,-356.71 421.5,-343.42 421.5,-331.8"/>
<polygon fill="#0d3f81" stroke="#0d3f81" stroke-width="0.5" points="422.73,-331.75 421.5,-328.25 420.28,-331.75 422.73,-331.75"/>
<text text-anchor="middle" x="438.5" y="-351" font-family="Arial" font-size="10.00" fill="#0d3f81">10.85%</text>
<text text-anchor="middle" x="438.5" y="-340" font-family="Arial" font-size="10.00" fill="#0d3f81">2×</text>
</g>
</g>
</svg>
