<?xml version="1.0" encoding="UTF-8" standalone="no"?>
<!DOCTYPE svg PUBLIC "-//W3C//DTD SVG 1.1//EN"
 "http://www.w3.org/Graphics/SVG/1.1/DTD/svg11.dtd">
<!-- Generated by graphviz version 2.43.0 (0)
 -->
<!-- Title: %3 Pages: 1 -->
<svg width="436pt" height="796pt"
 viewBox="0.00 0.00 436.00 796.00" xmlns="http://www.w3.org/2000/svg" xmlns:xlink="http://www.w3.org/1999/xlink">
<g id="graph0" class="graph" transform="scale(1 1) rotate(0) translate(4 792)">
<title>%3</title>
<polygon fill="white" stroke="transparent" points="-4,4 -4,-792 432,-792 432,4 -4,4"/>
<!-- 166 -->
<g id="node1" class="node">
<title>166</title>
<g id="a_node1"><a xlink:title="/usr/lib/python3/dist&#45;packages/matplotlib/axes/_base.py">
<polygon fill="#5dc608" stroke="#5dc608" points="313,-236 176,-236 176,-184 313,-184 313,-236"/>
<text text-anchor="middle" x="244.5" y="-224" font-family="Arial" font-size="10.00" fill="#ffffff">_base:2388:autoscale_view</text>
<text text-anchor="middle" x="244.5" y="-213" font-family="Arial" font-size="10.00" fill="#ffffff">61.20%</text>
<text text-anchor="middle" x="244.5" y="-202" font-family="Arial" font-size="10.00" fill="#ffffff">(0.18%)</text>
<text text-anchor="middle" x="244.5" y="-191" font-family="Arial" font-size="10.00" fill="#ffffff">14768×</text>
</a>
</g>
</g>
<!-- 366 -->
<g id="node2" class="node">
<title>366</title>
<g id="a_node2"><a xlink:title="/usr/lib/python3/dist&#45;packages/matplotlib/axes/_base.py">
<polygon fill="#0d4181" stroke="#0d4181" points="297.5,-144 145.5,-144 145.5,-92 297.5,-92 297.5,-144"/>
<text text-anchor="middle" x="221.5" y="-132" font-family="Arial" font-size="10.00" fill="#ffffff">_base:2425:handle_single_axis</text>
<text text-anchor="middle" x="221.5" y="-121" font-family="Arial" font-size="10.00" fill="#ffffff">11.30%</text>
<text text-anchor="middle" x="221.5" y="-110" font-family="Arial" font-size="10.00" fill="#ffffff">(0.81%)</text>
<text text-anchor="middle" x="221.5" y="-99" font-family="Arial" font-size="10.00" fill="#ffffff">29536×</text>
</a>
</g>
</g>
<!-- 166&#45;&gt;366 -->
<g id="edge1" class="edge">
<title>166&#45;&gt;366</title>
<path fill="none" stroke="#0d4181" stroke-width="0.5" d="M238.09,-183.93C235.23,-172.71 231.83,-159.42 228.86,-147.8"/>
<polygon fill="#0d4181" stroke="#0d4181" stroke-width="0.5" points="230.01,-147.34 227.95,-144.25 227.63,-147.94 230.01,-147.34"/>
<text text-anchor="middle" x="252" y="-167" font-family="Arial" font-size="10.00" fill="#0d4181">11.30%</text>
<text text-anchor="middle" x="252" y="-156" font-family="Arial" font-size="10.00" fill="#0d4181">29536×</text>
</g>
<!-- 1947 -->
<g id="node3" class="node">
<title>1947</title>
<g id="a_node3"><a xlink:title="/usr/lib/python3/dist&#45;packages/matplotlib/axes/_base.py">
<polygon fill="#0b9c77" stroke="#0b9c77" points="426,-144 307,-144 307,-92 426,-92 426,-144"/>
<text text-anchor="middle" x="366.5" y="-132" font-family="Arial" font-size="10.00" fill="#ffffff">_base:2415:&lt;listcomp&gt;</text>
<text text-anchor="middle" x="366.5" y="-121" font-family="Arial" font-size="10.00" fill="#ffffff">31.33%</text>
<text text-anchor="middle" x="366.5" y="-110" font-family="Arial" font-size="10.00" fill="#ffffff">(12.19%)</text>
<text text-anchor="middle" x="366.5" y="-99" font-family="Arial" font-size="10.00" fill="#ffffff">14768×</text>
</a>
</g>
</g>
<!-- 166&#45;&gt;1947 -->
<g id="edge2" class="edge">
<title>166&#45;&gt;1947</title>
<path fill="none" stroke="#0b9c77" stroke-width="1.25" d="M278.48,-183.93C293.69,-172.71 311.71,-159.42 327.46,-147.8"/>
<polygon fill="#0b9c77" stroke="#0b9c77" stroke-width="1.25" points="328.93,-149.15 332.28,-144.25 326.61,-145.99 328.93,-149.15"/>
<text text-anchor="middle" x="336.5" y="-167" font-family="Arial" font-size="10.00" fill="#0b9c77">31.33%</text>
<text text-anchor="middle" x="336.5" y="-156" font-family="Arial" font-size="10.00" fill="#0b9c77">14768×</text>
</g>
<!-- 1946 -->
<g id="node11" class="node">
<title>1946</title>
<g id="a_node11"><a xlink:title="/usr/lib/python3/dist&#45;packages/matplotlib/artist.py">
<polygon fill="#0c6e8c" stroke="#0c6e8c" points="428,-52 305,-52 305,0 428,0 428,-52"/>
<text text-anchor="middle" x="366.5" y="-40" font-family="Arial" font-size="10.00" fill="#ffffff">artist:1020:sticky_edges</text>
<text text-anchor="middle" x="366.5" y="-29" font-family="Arial" font-size="10.00" fill="#ffffff">19.14%</text>
<text text-anchor="middle" x="366.5" y="-18" font-family="Arial" font-size="10.00" fill="#ffffff">(19.14%)</text>
<text text-anchor="middle" x="366.5" y="-7" font-family="Arial" font-size="10.00" fill="#ffffff">109158401×</text>
</a>
</g>
</g>
<!-- 1947&#45;&gt;1946 -->
<g id="edge10" class="edge">
<title>1947&#45;&gt;1946</title>
<path fill="none" stroke="#0c6e8c" stroke-width="0.77" d="M366.5,-91.93C366.5,-81 366.5,-68.11 366.5,-56.7"/>
<polygon fill="#0c6e8c" stroke="#0c6e8c" stroke-width="0.77" points="368.04,-56.65 366.5,-52.25 364.96,-56.65 368.04,-56.65"/>
<text text-anchor="middle" x="393.5" y="-75" font-family="Arial" font-size="10.00" fill="#0c6e8c">19.14%</text>
<text text-anchor="middle" x="393.5" y="-64" font-family="Arial" font-size="10.00" fill="#0c6e8c">109157681×</text>
</g>
<!-- 333 -->
<g id="node4" class="node">
<title>333</title>
<g id="a_node4"><a xlink:title="main.py">
<polygon fill="#ff0000" stroke="#ff0000" points="147.5,-696 55.5,-696 55.5,-644 147.5,-644 147.5,-696"/>
<text text-anchor="middle" x="101.5" y="-684" font-family="Arial" font-size="10.00" fill="#ffffff">main:1:&lt;module&gt;</text>
<text text-anchor="middle" x="101.5" y="-673" font-family="Arial" font-size="10.00" fill="#ffffff">100.00%</text>
<text text-anchor="middle" x="101.5" y="-662" font-family="Arial" font-size="10.00" fill="#ffffff">(0.08%)</text>
<text text-anchor="middle" x="101.5" y="-651" font-family="Arial" font-size="10.00" fill="#ffffff">1×</text>
</a>
</g>
</g>
<!-- 339 -->
<g id="node5" class="node">
<title>339</title>
<g id="a_node5"><a xlink:title="/home/michel/Documentos/git/zigue_zague_tcc/zigue_zague_oo/ziguezague.py">
<polygon fill="#0d3e81" stroke="#0d3e81" points="155,-604 0,-604 0,-552 155,-552 155,-604"/>
<text text-anchor="middle" x="77.5" y="-592" font-family="Arial" font-size="10.00" fill="#ffffff">ziguezague:174:distintasProbas</text>
<text text-anchor="middle" x="77.5" y="-581" font-family="Arial" font-size="10.00" fill="#ffffff">10.74%</text>
<text text-anchor="middle" x="77.5" y="-570" font-family="Arial" font-size="10.00" fill="#ffffff">(10.74%)</text>
<text text-anchor="middle" x="77.5" y="-559" font-family="Arial" font-size="10.00" fill="#ffffff">1×</text>
</a>
</g>
</g>
<!-- 333&#45;&gt;339 -->
<g id="edge3" class="edge">
<title>333&#45;&gt;339</title>
<path fill="none" stroke="#0d3e81" stroke-width="0.5" d="M94.81,-643.93C91.82,-632.71 88.28,-619.42 85.18,-607.8"/>
<polygon fill="#0d3e81" stroke="#0d3e81" stroke-width="0.5" points="86.32,-607.31 84.23,-604.25 83.95,-607.95 86.32,-607.31"/>
<text text-anchor="middle" x="109.5" y="-627" font-family="Arial" font-size="10.00" fill="#0d3e81">10.74%</text>
<text text-anchor="middle" x="109.5" y="-616" font-family="Arial" font-size="10.00" fill="#0d3e81">1×</text>
</g>
<!-- 340 -->
<g id="node6" class="node">
<title>340</title>
<g id="a_node6"><a xlink:title="/home/michel/Documentos/git/zigue_zague_tcc/zigue_zague_oo/ziguezague.py">
<polygon fill="#e3aa04" stroke="#e3aa04" points="325,-604 164,-604 164,-552 325,-552 325,-604"/>
<text text-anchor="middle" x="244.5" y="-592" font-family="Arial" font-size="10.00" fill="#ffffff">ziguezague:202:imprimeCaminho</text>
<text text-anchor="middle" x="244.5" y="-581" font-family="Arial" font-size="10.00" fill="#ffffff">81.43%</text>
<text text-anchor="middle" x="244.5" y="-570" font-family="Arial" font-size="10.00" fill="#ffffff">(0.15%)</text>
<text text-anchor="middle" x="244.5" y="-559" font-family="Arial" font-size="10.00" fill="#ffffff">14768×</text>
</a>
</g>
</g>
<!-- 333&#45;&gt;340 -->
<g id="edge4" class="edge">
<title>333&#45;&gt;340</title>
<path fill="none" stroke="#e3aa04" stroke-width="3.26" d="M141.33,-643.93C158.39,-633.2 178.46,-620.56 196.34,-609.31"/>
<polygon fill="#e3aa04" stroke="#e3aa04" stroke-width="3.26" points="198.45,-611.71 204.38,-604.25 195.09,-606.38 198.45,-611.71"/>
<text text-anchor="middle" x="206.5" y="-627" font-family="Arial" font-size="10.00" fill="#e3aa04">81.43%</text>
<text text-anchor="middle" x="206.5" y="-616" font-family="Arial" font-size="10.00" fill="#e3aa04">14768×</text>
</g>
<!-- 1876 -->
<g id="node7" class="node">
<title>1876</title>
<g id="a_node7"><a xlink:title="/usr/lib/python3/dist&#45;packages/matplotlib/pyplot.py">
<polygon fill="#e3ac04" stroke="#e3ac04" points="294.5,-512 194.5,-512 194.5,-460 294.5,-460 294.5,-512"/>
<text text-anchor="middle" x="244.5" y="-500" font-family="Arial" font-size="10.00" fill="#ffffff">pyplot:2831:scatter</text>
<text text-anchor="middle" x="244.5" y="-489" font-family="Arial" font-size="10.00" fill="#ffffff">81.15%</text>
<text text-anchor="middle" x="244.5" y="-478" font-family="Arial" font-size="10.00" fill="#ffffff">(0.09%)</text>
<text text-anchor="middle" x="244.5" y="-467" font-family="Arial" font-size="10.00" fill="#ffffff">14768×</text>
</a>
</g>
</g>
<!-- 340&#45;&gt;1876 -->
<g id="edge5" class="edge">
<title>340&#45;&gt;1876</title>
<path fill="none" stroke="#e3ac04" stroke-width="3.25" d="M244.5,-551.93C244.5,-542.45 244.5,-531.5 244.5,-521.32"/>
<polygon fill="#e3ac04" stroke="#e3ac04" stroke-width="3.25" points="247.65,-521.25 244.5,-512.25 241.35,-521.25 247.65,-521.25"/>
<text text-anchor="middle" x="261.5" y="-535" font-family="Arial" font-size="10.00" fill="#e3ac04">81.15%</text>
<text text-anchor="middle" x="261.5" y="-524" font-family="Arial" font-size="10.00" fill="#e3ac04">14768×</text>
</g>
<!-- 1208 -->
<g id="node10" class="node">
<title>1208</title>
<g id="a_node10"><a xlink:title="/usr/lib/python3/dist&#45;packages/matplotlib/__init__.py">
<polygon fill="#e0bb05" stroke="#e0bb05" points="293.5,-420 195.5,-420 195.5,-368 293.5,-368 293.5,-420"/>
<text text-anchor="middle" x="244.5" y="-408" font-family="Arial" font-size="10.00" fill="#ffffff">__init__:1598:inner</text>
<text text-anchor="middle" x="244.5" y="-397" font-family="Arial" font-size="10.00" fill="#ffffff">79.21%</text>
<text text-anchor="middle" x="244.5" y="-386" font-family="Arial" font-size="10.00" fill="#ffffff">(0.09%)</text>
<text text-anchor="middle" x="244.5" y="-375" font-family="Arial" font-size="10.00" fill="#ffffff">14768×</text>
</a>
</g>
</g>
<!-- 1876&#45;&gt;1208 -->
<g id="edge9" class="edge">
<title>1876&#45;&gt;1208</title>
<path fill="none" stroke="#e0bb05" stroke-width="3.17" d="M244.5,-459.93C244.5,-450.45 244.5,-439.5 244.5,-429.32"/>
<polygon fill="#e0bb05" stroke="#e0bb05" stroke-width="3.17" points="247.62,-429.15 244.5,-420.25 241.39,-429.15 247.62,-429.15"/>
<text text-anchor="middle" x="261.5" y="-443" font-family="Arial" font-size="10.00" fill="#e0bb05">79.21%</text>
<text text-anchor="middle" x="261.5" y="-432" font-family="Arial" font-size="10.00" fill="#e0bb05">14768×</text>
</g>
<!-- 443 -->
<g id="node8" class="node">
<title>443</title>
<g id="a_node8"><a xlink:title="/usr/lib/python3/dist&#45;packages/matplotlib/axes/_axes.py">
<polygon fill="#e0bc05" stroke="#e0bc05" points="294,-328 195,-328 195,-276 294,-276 294,-328"/>
<text text-anchor="middle" x="244.5" y="-316" font-family="Arial" font-size="10.00" fill="#ffffff">_axes:4311:scatter</text>
<text text-anchor="middle" x="244.5" y="-305" font-family="Arial" font-size="10.00" fill="#ffffff">79.08%</text>
<text text-anchor="middle" x="244.5" y="-294" font-family="Arial" font-size="10.00" fill="#ffffff">(0.85%)</text>
<text text-anchor="middle" x="244.5" y="-283" font-family="Arial" font-size="10.00" fill="#ffffff">14768×</text>
</a>
</g>
</g>
<!-- 443&#45;&gt;166 -->
<g id="edge6" class="edge">
<title>443&#45;&gt;166</title>
<path fill="none" stroke="#5dc608" stroke-width="2.45" d="M244.5,-275.93C244.5,-266.07 244.5,-254.6 244.5,-244.07"/>
<polygon fill="#5dc608" stroke="#5dc608" stroke-width="2.45" points="247.23,-244.05 244.5,-236.25 241.77,-244.05 247.23,-244.05"/>
<text text-anchor="middle" x="261.5" y="-259" font-family="Arial" font-size="10.00" fill="#5dc608">61.20%</text>
<text text-anchor="middle" x="261.5" y="-248" font-family="Arial" font-size="10.00" fill="#5dc608">14768×</text>
</g>
<!-- 709 -->
<g id="node9" class="node">
<title>709</title>
<g id="a_node9"><a xlink:title="~">
<polygon fill="#ff0000" stroke="#ff0000" points="185,-788 18,-788 18,-736 185,-736 185,-788"/>
<text text-anchor="middle" x="101.5" y="-776" font-family="Arial" font-size="10.00" fill="#ffffff">~:0:&lt;built&#45;in method builtins.exec&gt;</text>
<text text-anchor="middle" x="101.5" y="-765" font-family="Arial" font-size="10.00" fill="#ffffff">100.00%</text>
<text text-anchor="middle" x="101.5" y="-754" font-family="Arial" font-size="10.00" fill="#ffffff">(0.00%)</text>
<text text-anchor="middle" x="101.5" y="-743" font-family="Arial" font-size="10.00" fill="#ffffff">597×</text>
</a>
</g>
</g>
<!-- 709&#45;&gt;333 -->
<g id="edge7" class="edge">
<title>709&#45;&gt;333</title>
<path fill="none" stroke="#ff0000" stroke-width="4" d="M101.5,-735.93C101.5,-726.74 101.5,-716.17 101.5,-706.25"/>
<polygon fill="#ff0000" stroke="#ff0000" stroke-width="4" points="105,-706.25 101.5,-696.25 98,-706.25 105,-706.25"/>
<text text-anchor="middle" x="121" y="-719" font-family="Arial" font-size="10.00" fill="#ff0000">100.00%</text>
<text text-anchor="middle" x="121" y="-708" font-family="Arial" font-size="10.00" fill="#ff0000">1×</text>
</g>
<!-- 1208&#45;&gt;443 -->
<g id="edge8" class="edge">
<title>1208&#45;&gt;443</title>
<path fill="none" stroke="#e0bc05" stroke-width="3.16" d="M244.5,-367.93C244.5,-358.45 244.5,-347.5 244.5,-337.32"/>
<polygon fill="#e0bc05" stroke="#e0bc05" stroke-width="3.16" points="247.62,-337.15 244.5,-328.25 241.39,-337.15 247.62,-337.15"/>
<text text-anchor="middle" x="261.5" y="-351" font-family="Arial" font-size="10.00" fill="#e0bc05">79.08%</text>
<text text-anchor="middle" x="261.5" y="-340" font-family="Arial" font-size="10.00" fill="#e0bc05">14768×</text>
</g>
</g>
</svg>
