<?xml version="1.0" encoding="UTF-8" standalone="no"?>
<!DOCTYPE svg PUBLIC "-//W3C//DTD SVG 1.1//EN"
 "http://www.w3.org/Graphics/SVG/1.1/DTD/svg11.dtd">
<!-- Generated by graphviz version 2.43.0 (0)
 -->
<!-- Title: %3 Pages: 1 -->
<svg width="442pt" height="612pt"
 viewBox="0.00 0.00 442.00 612.00" xmlns="http://www.w3.org/2000/svg" xmlns:xlink="http://www.w3.org/1999/xlink">
<g id="graph0" class="graph" transform="scale(1 1) rotate(0) translate(4 608)">
<title>%3</title>
<polygon fill="white" stroke="transparent" points="-4,4 -4,-608 438,-608 438,4 -4,4"/>
<!-- 217 -->
<g id="node1" class="node">
<title>217</title>
<g id="a_node1"><a xlink:title="/usr/lib/python3/dist&#45;packages/matplotlib/axes/_base.py">
<polygon fill="#0c5b87" stroke="#0c5b87" points="137,-52 0,-52 0,0 137,0 137,-52"/>
<text text-anchor="middle" x="68.5" y="-40" font-family="Arial" font-size="10.00" fill="#ffffff">_base:2388:autoscale_view</text>
<text text-anchor="middle" x="68.5" y="-29" font-family="Arial" font-size="10.00" fill="#ffffff">15.90%</text>
<text text-anchor="middle" x="68.5" y="-18" font-family="Arial" font-size="10.00" fill="#ffffff">(0.02%)</text>
<text text-anchor="middle" x="68.5" y="-7" font-family="Arial" font-size="10.00" fill="#ffffff">69267×</text>
</a>
</g>
</g>
<!-- 356 -->
<g id="node2" class="node">
<title>356</title>
<g id="a_node2"><a xlink:title="/usr/lib/python3.8/random.py">
<polygon fill="#0b9c76" stroke="#0b9c76" points="273.5,-236 171.5,-236 171.5,-184 273.5,-184 273.5,-236"/>
<text text-anchor="middle" x="222.5" y="-224" font-family="Arial" font-size="10.00" fill="#ffffff">random:315:sample</text>
<text text-anchor="middle" x="222.5" y="-213" font-family="Arial" font-size="10.00" fill="#ffffff">31.68%</text>
<text text-anchor="middle" x="222.5" y="-202" font-family="Arial" font-size="10.00" fill="#ffffff">(13.37%)</text>
<text text-anchor="middle" x="222.5" y="-191" font-family="Arial" font-size="10.00" fill="#ffffff">958276283×</text>
</a>
</g>
</g>
<!-- 1095 -->
<g id="node3" class="node">
<title>1095</title>
<g id="a_node3"><a xlink:title="~">
<polygon fill="#0d4181" stroke="#0d4181" points="318,-144 127,-144 127,-92 318,-92 318,-144"/>
<text text-anchor="middle" x="222.5" y="-132" font-family="Arial" font-size="10.00" fill="#ffffff">~:0:&lt;built&#45;in method builtins.isinstance&gt;</text>
<text text-anchor="middle" x="222.5" y="-121" font-family="Arial" font-size="10.00" fill="#ffffff">11.30%</text>
<text text-anchor="middle" x="222.5" y="-110" font-family="Arial" font-size="10.00" fill="#ffffff">(5.08%)</text>
<text text-anchor="middle" x="222.5" y="-99" font-family="Arial" font-size="10.00" fill="#ffffff">1926851967×</text>
</a>
</g>
</g>
<!-- 356&#45;&gt;1095 -->
<g id="edge1" class="edge">
<title>356&#45;&gt;1095</title>
<path fill="none" stroke="#0d4181" stroke-width="0.5" d="M222.5,-183.93C222.5,-172.71 222.5,-159.42 222.5,-147.8"/>
<polygon fill="#0d4181" stroke="#0d4181" stroke-width="0.5" points="223.73,-147.75 222.5,-144.25 221.28,-147.75 223.73,-147.75"/>
<text text-anchor="middle" x="252" y="-167" font-family="Arial" font-size="10.00" fill="#0d4181">11.27%</text>
<text text-anchor="middle" x="252" y="-156" font-family="Arial" font-size="10.00" fill="#0d4181">1916552566×</text>
</g>
<!-- 434 -->
<g id="node4" class="node">
<title>434</title>
<g id="a_node4"><a xlink:title="main.py">
<polygon fill="#0c5a87" stroke="#0c5a87" points="434,-236 283,-236 283,-184 434,-184 434,-236"/>
<text text-anchor="middle" x="358.5" y="-224" font-family="Arial" font-size="10.00" fill="#ffffff">main:71:resultadosExpressoes</text>
<text text-anchor="middle" x="358.5" y="-213" font-family="Arial" font-size="10.00" fill="#ffffff">15.75%</text>
<text text-anchor="middle" x="358.5" y="-202" font-family="Arial" font-size="10.00" fill="#ffffff">(12.14%)</text>
<text text-anchor="middle" x="358.5" y="-191" font-family="Arial" font-size="10.00" fill="#ffffff">958276284×</text>
</a>
</g>
</g>
<!-- 439 -->
<g id="node5" class="node">
<title>439</title>
<g id="a_node5"><a xlink:title="main.py">
<polygon fill="#0c658a" stroke="#0c658a" points="161,-420 28,-420 28,-368 161,-368 161,-420"/>
<text text-anchor="middle" x="94.5" y="-408" font-family="Arial" font-size="10.00" fill="#ffffff">main:302:imprimeCaminho</text>
<text text-anchor="middle" x="94.5" y="-397" font-family="Arial" font-size="10.00" fill="#ffffff">17.76%</text>
<text text-anchor="middle" x="94.5" y="-386" font-family="Arial" font-size="10.00" fill="#ffffff">(0.01%)</text>
<text text-anchor="middle" x="94.5" y="-375" font-family="Arial" font-size="10.00" fill="#ffffff">69267×</text>
</a>
</g>
</g>
<!-- 3259 -->
<g id="node6" class="node">
<title>3259</title>
<g id="a_node6"><a xlink:title="/usr/lib/python3/dist&#45;packages/matplotlib/pyplot.py">
<polygon fill="#0c658a" stroke="#0c658a" points="130.5,-328 30.5,-328 30.5,-276 130.5,-276 130.5,-328"/>
<text text-anchor="middle" x="80.5" y="-316" font-family="Arial" font-size="10.00" fill="#ffffff">pyplot:2831:scatter</text>
<text text-anchor="middle" x="80.5" y="-305" font-family="Arial" font-size="10.00" fill="#ffffff">17.74%</text>
<text text-anchor="middle" x="80.5" y="-294" font-family="Arial" font-size="10.00" fill="#ffffff">(0.01%)</text>
<text text-anchor="middle" x="80.5" y="-283" font-family="Arial" font-size="10.00" fill="#ffffff">69267×</text>
</a>
</g>
</g>
<!-- 439&#45;&gt;3259 -->
<g id="edge2" class="edge">
<title>439&#45;&gt;3259</title>
<path fill="none" stroke="#0c658a" stroke-width="0.71" d="M90.6,-367.93C88.89,-356.91 86.86,-343.88 85.07,-332.4"/>
<polygon fill="#0c658a" stroke="#0c658a" stroke-width="0.71" points="86.53,-332.17 84.43,-328.25 83.62,-332.62 86.53,-332.17"/>
<text text-anchor="middle" x="106.5" y="-351" font-family="Arial" font-size="10.00" fill="#0c658a">17.74%</text>
<text text-anchor="middle" x="106.5" y="-340" font-family="Arial" font-size="10.00" fill="#0c658a">69267×</text>
</g>
<!-- 2664 -->
<g id="node12" class="node">
<title>2664</title>
<g id="a_node12"><a xlink:title="/usr/lib/python3/dist&#45;packages/matplotlib/__init__.py">
<polygon fill="#0c6289" stroke="#0c6289" points="122.5,-236 24.5,-236 24.5,-184 122.5,-184 122.5,-236"/>
<text text-anchor="middle" x="73.5" y="-224" font-family="Arial" font-size="10.00" fill="#ffffff">__init__:1598:inner</text>
<text text-anchor="middle" x="73.5" y="-213" font-family="Arial" font-size="10.00" fill="#ffffff">17.13%</text>
<text text-anchor="middle" x="73.5" y="-202" font-family="Arial" font-size="10.00" fill="#ffffff">(0.01%)</text>
<text text-anchor="middle" x="73.5" y="-191" font-family="Arial" font-size="10.00" fill="#ffffff">69267×</text>
</a>
</g>
</g>
<!-- 3259&#45;&gt;2664 -->
<g id="edge11" class="edge">
<title>3259&#45;&gt;2664</title>
<path fill="none" stroke="#0c6289" stroke-width="0.69" d="M78.55,-275.93C77.69,-264.91 76.68,-251.88 75.79,-240.4"/>
<polygon fill="#0c6289" stroke="#0c6289" stroke-width="0.69" points="77.21,-240.22 75.46,-236.25 74.35,-240.45 77.21,-240.22"/>
<text text-anchor="middle" x="95.5" y="-259" font-family="Arial" font-size="10.00" fill="#0c6289">17.13%</text>
<text text-anchor="middle" x="95.5" y="-248" font-family="Arial" font-size="10.00" fill="#0c6289">69267×</text>
</g>
<!-- 441 -->
<g id="node7" class="node">
<title>441</title>
<g id="a_node7"><a xlink:title="main.py">
<polygon fill="#e3a804" stroke="#e3a804" points="262.5,-328 182.5,-328 182.5,-276 262.5,-276 262.5,-328"/>
<text text-anchor="middle" x="222.5" y="-316" font-family="Arial" font-size="10.00" fill="#ffffff">main:402:jogar</text>
<text text-anchor="middle" x="222.5" y="-305" font-family="Arial" font-size="10.00" fill="#ffffff">81.69%</text>
<text text-anchor="middle" x="222.5" y="-294" font-family="Arial" font-size="10.00" fill="#ffffff">(23.57%)</text>
<text text-anchor="middle" x="222.5" y="-283" font-family="Arial" font-size="10.00" fill="#ffffff">48000001×</text>
</a>
</g>
</g>
<!-- 441&#45;&gt;356 -->
<g id="edge3" class="edge">
<title>441&#45;&gt;356</title>
<path fill="none" stroke="#0b9c76" stroke-width="1.27" d="M222.5,-275.93C222.5,-265.39 222.5,-253.02 222.5,-241.92"/>
<polygon fill="#0b9c76" stroke="#0b9c76" stroke-width="1.27" points="224.46,-241.85 222.5,-236.25 220.54,-241.85 224.46,-241.85"/>
<text text-anchor="middle" x="249.5" y="-259" font-family="Arial" font-size="10.00" fill="#0b9c76">31.68%</text>
<text text-anchor="middle" x="249.5" y="-248" font-family="Arial" font-size="10.00" fill="#0b9c76">958276283×</text>
</g>
<!-- 441&#45;&gt;434 -->
<g id="edge4" class="edge">
<title>441&#45;&gt;434</title>
<path fill="none" stroke="#0c5a87" stroke-width="0.63" d="M262.77,-276.98C268.09,-273.68 273.45,-270.29 278.5,-267 292.37,-257.95 307.31,-247.64 320.48,-238.37"/>
<polygon fill="#0c5a87" stroke="#0c5a87" stroke-width="0.63" points="321.33,-239.48 323.79,-236.03 319.71,-237.2 321.33,-239.48"/>
<text text-anchor="middle" x="336.5" y="-259" font-family="Arial" font-size="10.00" fill="#0c5a87">15.75%</text>
<text text-anchor="middle" x="336.5" y="-248" font-family="Arial" font-size="10.00" fill="#0c5a87">958276283×</text>
</g>
<!-- 443 -->
<g id="node8" class="node">
<title>443</title>
<g id="a_node8"><a xlink:title="main.py">
<polygon fill="#e4a504" stroke="#e4a504" points="274.5,-420 170.5,-420 170.5,-368 274.5,-368 274.5,-420"/>
<text text-anchor="middle" x="222.5" y="-408" font-family="Arial" font-size="10.00" fill="#ffffff">main:519:simulacao</text>
<text text-anchor="middle" x="222.5" y="-397" font-family="Arial" font-size="10.00" fill="#ffffff">82.07%</text>
<text text-anchor="middle" x="222.5" y="-386" font-family="Arial" font-size="10.00" fill="#ffffff">(0.34%)</text>
<text text-anchor="middle" x="222.5" y="-375" font-family="Arial" font-size="10.00" fill="#ffffff">8×</text>
</a>
</g>
</g>
<!-- 443&#45;&gt;441 -->
<g id="edge5" class="edge">
<title>443&#45;&gt;441</title>
<path fill="none" stroke="#e3a804" stroke-width="3.27" d="M222.5,-367.93C222.5,-358.45 222.5,-347.5 222.5,-337.32"/>
<polygon fill="#e3a804" stroke="#e3a804" stroke-width="3.27" points="225.65,-337.25 222.5,-328.25 219.35,-337.25 225.65,-337.25"/>
<text text-anchor="middle" x="247" y="-351" font-family="Arial" font-size="10.00" fill="#e3a804">81.69%</text>
<text text-anchor="middle" x="247" y="-340" font-family="Arial" font-size="10.00" fill="#e3a804">48000000×</text>
</g>
<!-- 444 -->
<g id="node9" class="node">
<title>444</title>
<g id="a_node9"><a xlink:title="main.py">
<polygon fill="#ff0000" stroke="#ff0000" points="204.5,-512 112.5,-512 112.5,-460 204.5,-460 204.5,-512"/>
<text text-anchor="middle" x="158.5" y="-500" font-family="Arial" font-size="10.00" fill="#ffffff">main:1:&lt;module&gt;</text>
<text text-anchor="middle" x="158.5" y="-489" font-family="Arial" font-size="10.00" fill="#ffffff">100.00%</text>
<text text-anchor="middle" x="158.5" y="-478" font-family="Arial" font-size="10.00" fill="#ffffff">(0.00%)</text>
<text text-anchor="middle" x="158.5" y="-467" font-family="Arial" font-size="10.00" fill="#ffffff">1×</text>
</a>
</g>
</g>
<!-- 444&#45;&gt;439 -->
<g id="edge6" class="edge">
<title>444&#45;&gt;439</title>
<path fill="none" stroke="#0c658a" stroke-width="0.71" d="M140.67,-459.93C132.69,-448.71 123.24,-435.42 114.98,-423.8"/>
<polygon fill="#0c658a" stroke="#0c658a" stroke-width="0.71" points="116.09,-422.82 112.45,-420.25 113.69,-424.52 116.09,-422.82"/>
<text text-anchor="middle" x="151.5" y="-443" font-family="Arial" font-size="10.00" fill="#0c658a">17.76%</text>
<text text-anchor="middle" x="151.5" y="-432" font-family="Arial" font-size="10.00" fill="#0c658a">69267×</text>
</g>
<!-- 444&#45;&gt;443 -->
<g id="edge7" class="edge">
<title>444&#45;&gt;443</title>
<path fill="none" stroke="#e4a504" stroke-width="3.28" d="M176.33,-459.93C183.41,-449.97 191.66,-438.37 199.2,-427.76"/>
<polygon fill="#e4a504" stroke="#e4a504" stroke-width="3.28" points="201.87,-429.51 204.55,-420.25 196.68,-425.82 201.87,-429.51"/>
<text text-anchor="middle" x="215.5" y="-443" font-family="Arial" font-size="10.00" fill="#e4a504">82.07%</text>
<text text-anchor="middle" x="215.5" y="-432" font-family="Arial" font-size="10.00" fill="#e4a504">8×</text>
</g>
<!-- 561 -->
<g id="node10" class="node">
<title>561</title>
<g id="a_node10"><a xlink:title="/usr/lib/python3/dist&#45;packages/matplotlib/axes/_axes.py">
<polygon fill="#0c6289" stroke="#0c6289" points="118,-144 19,-144 19,-92 118,-92 118,-144"/>
<text text-anchor="middle" x="68.5" y="-132" font-family="Arial" font-size="10.00" fill="#ffffff">_axes:4311:scatter</text>
<text text-anchor="middle" x="68.5" y="-121" font-family="Arial" font-size="10.00" fill="#ffffff">17.12%</text>
<text text-anchor="middle" x="68.5" y="-110" font-family="Arial" font-size="10.00" fill="#ffffff">(0.25%)</text>
<text text-anchor="middle" x="68.5" y="-99" font-family="Arial" font-size="10.00" fill="#ffffff">69267×</text>
</a>
</g>
</g>
<!-- 561&#45;&gt;217 -->
<g id="edge8" class="edge">
<title>561&#45;&gt;217</title>
<path fill="none" stroke="#0c5b87" stroke-width="0.64" d="M68.5,-91.93C68.5,-80.91 68.5,-67.88 68.5,-56.4"/>
<polygon fill="#0c5b87" stroke="#0c5b87" stroke-width="0.64" points="69.9,-56.25 68.5,-52.25 67.1,-56.25 69.9,-56.25"/>
<text text-anchor="middle" x="85.5" y="-75" font-family="Arial" font-size="10.00" fill="#0c5b87">15.90%</text>
<text text-anchor="middle" x="85.5" y="-64" font-family="Arial" font-size="10.00" fill="#0c5b87">69267×</text>
</g>
<!-- 974 -->
<g id="node11" class="node">
<title>974</title>
<g id="a_node11"><a xlink:title="~">
<polygon fill="#ff0000" stroke="#ff0000" points="242,-604 75,-604 75,-552 242,-552 242,-604"/>
<text text-anchor="middle" x="158.5" y="-592" font-family="Arial" font-size="10.00" fill="#ffffff">~:0:&lt;built&#45;in method builtins.exec&gt;</text>
<text text-anchor="middle" x="158.5" y="-581" font-family="Arial" font-size="10.00" fill="#ffffff">100.00%</text>
<text text-anchor="middle" x="158.5" y="-570" font-family="Arial" font-size="10.00" fill="#ffffff">(0.00%)</text>
<text text-anchor="middle" x="158.5" y="-559" font-family="Arial" font-size="10.00" fill="#ffffff">870×</text>
</a>
</g>
</g>
<!-- 974&#45;&gt;444 -->
<g id="edge9" class="edge">
<title>974&#45;&gt;444</title>
<path fill="none" stroke="#ff0000" stroke-width="4" d="M158.5,-551.93C158.5,-542.74 158.5,-532.17 158.5,-522.25"/>
<polygon fill="#ff0000" stroke="#ff0000" stroke-width="4" points="162,-522.25 158.5,-512.25 155,-522.25 162,-522.25"/>
<text text-anchor="middle" x="178" y="-535" font-family="Arial" font-size="10.00" fill="#ff0000">100.00%</text>
<text text-anchor="middle" x="178" y="-524" font-family="Arial" font-size="10.00" fill="#ff0000">1×</text>
</g>
<!-- 2664&#45;&gt;561 -->
<g id="edge10" class="edge">
<title>2664&#45;&gt;561</title>
<path fill="none" stroke="#0c6289" stroke-width="0.68" d="M72.11,-183.93C71.49,-172.91 70.77,-159.88 70.13,-148.4"/>
<polygon fill="#0c6289" stroke="#0c6289" stroke-width="0.68" points="71.56,-148.26 69.9,-144.25 68.7,-148.42 71.56,-148.26"/>
<text text-anchor="middle" x="89.5" y="-167" font-family="Arial" font-size="10.00" fill="#0c6289">17.12%</text>
<text text-anchor="middle" x="89.5" y="-156" font-family="Arial" font-size="10.00" fill="#0c6289">69267×</text>
</g>
</g>
</svg>
