<?xml version="1.0" encoding="UTF-8" standalone="no"?>
<!DOCTYPE svg PUBLIC "-//W3C//DTD SVG 1.1//EN"
 "http://www.w3.org/Graphics/SVG/1.1/DTD/svg11.dtd">
<!-- Generated by graphviz version 2.43.0 (0)
 -->
<!-- Title: %3 Pages: 1 -->
<svg width="407pt" height="612pt"
 viewBox="0.00 0.00 407.00 612.00" xmlns="http://www.w3.org/2000/svg" xmlns:xlink="http://www.w3.org/1999/xlink">
<g id="graph0" class="graph" transform="scale(1 1) rotate(0) translate(4 608)">
<title>%3</title>
<polygon fill="white" stroke="transparent" points="-4,4 -4,-608 403,-608 403,4 -4,4"/>
<!-- 220 -->
<g id="node1" class="node">
<title>220</title>
<g id="a_node1"><a xlink:title="/usr/lib/python3/dist&#45;packages/matplotlib/axes/_base.py">
<polygon fill="#0c6d8c" stroke="#0c6d8c" points="137,-52 0,-52 0,0 137,0 137,-52"/>
<text text-anchor="middle" x="68.5" y="-40" font-family="Arial" font-size="10.00" fill="#ffffff">_base:2388:autoscale_view</text>
<text text-anchor="middle" x="68.5" y="-29" font-family="Arial" font-size="10.00" fill="#ffffff">19.08%</text>
<text text-anchor="middle" x="68.5" y="-18" font-family="Arial" font-size="10.00" fill="#ffffff">(0.06%)</text>
<text text-anchor="middle" x="68.5" y="-7" font-family="Arial" font-size="10.00" fill="#ffffff">29540×</text>
</a>
</g>
</g>
<!-- 352 -->
<g id="node2" class="node">
<title>352</title>
<g id="a_node2"><a xlink:title="/usr/lib/python3.8/random.py">
<polygon fill="#0c968b" stroke="#0c968b" points="238.5,-236 136.5,-236 136.5,-184 238.5,-184 238.5,-236"/>
<text text-anchor="middle" x="187.5" y="-224" font-family="Arial" font-size="10.00" fill="#ffffff">random:315:sample</text>
<text text-anchor="middle" x="187.5" y="-213" font-family="Arial" font-size="10.00" fill="#ffffff">26.93%</text>
<text text-anchor="middle" x="187.5" y="-202" font-family="Arial" font-size="10.00" fill="#ffffff">(11.31%)</text>
<text text-anchor="middle" x="187.5" y="-191" font-family="Arial" font-size="10.00" fill="#ffffff">66568288×</text>
</a>
</g>
</g>
<!-- 431 -->
<g id="node3" class="node">
<title>431</title>
<g id="a_node3"><a xlink:title="main.py">
<polygon fill="#0d4c84" stroke="#0d4c84" points="399,-236 248,-236 248,-184 399,-184 399,-236"/>
<text text-anchor="middle" x="323.5" y="-224" font-family="Arial" font-size="10.00" fill="#ffffff">main:65:resultadosExpressoes</text>
<text text-anchor="middle" x="323.5" y="-213" font-family="Arial" font-size="10.00" fill="#ffffff">13.31%</text>
<text text-anchor="middle" x="323.5" y="-202" font-family="Arial" font-size="10.00" fill="#ffffff">(10.13%)</text>
<text text-anchor="middle" x="323.5" y="-191" font-family="Arial" font-size="10.00" fill="#ffffff">66566289×</text>
</a>
</g>
</g>
<!-- 436 -->
<g id="node4" class="node">
<title>436</title>
<g id="a_node4"><a xlink:title="main.py">
<polygon fill="#0c9492" stroke="#0c9492" points="135,-420 2,-420 2,-368 135,-368 135,-420"/>
<text text-anchor="middle" x="68.5" y="-408" font-family="Arial" font-size="10.00" fill="#ffffff">main:279:imprimeCaminho</text>
<text text-anchor="middle" x="68.5" y="-397" font-family="Arial" font-size="10.00" fill="#ffffff">25.40%</text>
<text text-anchor="middle" x="68.5" y="-386" font-family="Arial" font-size="10.00" fill="#ffffff">(0.05%)</text>
<text text-anchor="middle" x="68.5" y="-375" font-family="Arial" font-size="10.00" fill="#ffffff">29533×</text>
</a>
</g>
</g>
<!-- 3363 -->
<g id="node5" class="node">
<title>3363</title>
<g id="a_node5"><a xlink:title="/usr/lib/python3/dist&#45;packages/matplotlib/pyplot.py">
<polygon fill="#0c9492" stroke="#0c9492" points="118.5,-328 18.5,-328 18.5,-276 118.5,-276 118.5,-328"/>
<text text-anchor="middle" x="68.5" y="-316" font-family="Arial" font-size="10.00" fill="#ffffff">pyplot:2831:scatter</text>
<text text-anchor="middle" x="68.5" y="-305" font-family="Arial" font-size="10.00" fill="#ffffff">25.31%</text>
<text text-anchor="middle" x="68.5" y="-294" font-family="Arial" font-size="10.00" fill="#ffffff">(0.03%)</text>
<text text-anchor="middle" x="68.5" y="-283" font-family="Arial" font-size="10.00" fill="#ffffff">29533×</text>
</a>
</g>
</g>
<!-- 436&#45;&gt;3363 -->
<g id="edge1" class="edge">
<title>436&#45;&gt;3363</title>
<path fill="none" stroke="#0c9492" stroke-width="1.01" d="M68.5,-367.93C68.5,-357.2 68.5,-344.56 68.5,-333.31"/>
<polygon fill="#0c9492" stroke="#0c9492" stroke-width="1.01" points="70.25,-333.25 68.5,-328.25 66.75,-333.25 70.25,-333.25"/>
<text text-anchor="middle" x="85.5" y="-351" font-family="Arial" font-size="10.00" fill="#0c9492">25.31%</text>
<text text-anchor="middle" x="85.5" y="-340" font-family="Arial" font-size="10.00" fill="#0c9492">29533×</text>
</g>
<!-- 2563 -->
<g id="node11" class="node">
<title>2563</title>
<g id="a_node11"><a xlink:title="/usr/lib/python3/dist&#45;packages/matplotlib/__init__.py">
<polygon fill="#0c9293" stroke="#0c9293" points="117.5,-236 19.5,-236 19.5,-184 117.5,-184 117.5,-236"/>
<text text-anchor="middle" x="68.5" y="-224" font-family="Arial" font-size="10.00" fill="#ffffff">__init__:1598:inner</text>
<text text-anchor="middle" x="68.5" y="-213" font-family="Arial" font-size="10.00" fill="#ffffff">24.72%</text>
<text text-anchor="middle" x="68.5" y="-202" font-family="Arial" font-size="10.00" fill="#ffffff">(0.03%)</text>
<text text-anchor="middle" x="68.5" y="-191" font-family="Arial" font-size="10.00" fill="#ffffff">29538×</text>
</a>
</g>
</g>
<!-- 3363&#45;&gt;2563 -->
<g id="edge10" class="edge">
<title>3363&#45;&gt;2563</title>
<path fill="none" stroke="#0c9293" stroke-width="0.99" d="M68.5,-275.93C68.5,-265.2 68.5,-252.56 68.5,-241.31"/>
<polygon fill="#0c9293" stroke="#0c9293" stroke-width="0.99" points="70.25,-241.25 68.5,-236.25 66.75,-241.25 70.25,-241.25"/>
<text text-anchor="middle" x="85.5" y="-259" font-family="Arial" font-size="10.00" fill="#0c9293">24.72%</text>
<text text-anchor="middle" x="85.5" y="-248" font-family="Arial" font-size="10.00" fill="#0c9293">29533×</text>
</g>
<!-- 439 -->
<g id="node6" class="node">
<title>439</title>
<g id="a_node6"><a xlink:title="main.py">
<polygon fill="#9bd007" stroke="#9bd007" points="236.5,-328 156.5,-328 156.5,-276 236.5,-276 236.5,-328"/>
<text text-anchor="middle" x="196.5" y="-316" font-family="Arial" font-size="10.00" fill="#ffffff">main:618:jogar</text>
<text text-anchor="middle" x="196.5" y="-305" font-family="Arial" font-size="10.00" fill="#ffffff">68.40%</text>
<text text-anchor="middle" x="196.5" y="-294" font-family="Arial" font-size="10.00" fill="#ffffff">(19.72%)</text>
<text text-anchor="middle" x="196.5" y="-283" font-family="Arial" font-size="10.00" fill="#ffffff">3333331×</text>
</a>
</g>
</g>
<!-- 439&#45;&gt;352 -->
<g id="edge2" class="edge">
<title>439&#45;&gt;352</title>
<path fill="none" stroke="#0c958d" stroke-width="1.06" d="M193.99,-275.93C192.93,-265.29 191.68,-252.79 190.56,-241.61"/>
<polygon fill="#0c958d" stroke="#0c958d" stroke-width="1.06" points="192.31,-241.14 190.02,-236.25 188.76,-241.5 192.31,-241.14"/>
<text text-anchor="middle" x="218" y="-259" font-family="Arial" font-size="10.00" fill="#0c958d">26.45%</text>
<text text-anchor="middle" x="218" y="-248" font-family="Arial" font-size="10.00" fill="#0c958d">66566288×</text>
</g>
<!-- 439&#45;&gt;431 -->
<g id="edge3" class="edge">
<title>439&#45;&gt;431</title>
<path fill="none" stroke="#0d4c84" stroke-width="0.53" d="M231.88,-275.93C248.25,-264.32 267.76,-250.5 284.55,-238.6"/>
<polygon fill="#0d4c84" stroke="#0d4c84" stroke-width="0.53" points="285.66,-239.36 287.87,-236.25 284.21,-237.3 285.66,-239.36"/>
<text text-anchor="middle" x="299" y="-259" font-family="Arial" font-size="10.00" fill="#0d4c84">13.31%</text>
<text text-anchor="middle" x="299" y="-248" font-family="Arial" font-size="10.00" fill="#0d4c84">66566288×</text>
</g>
<!-- 441 -->
<g id="node7" class="node">
<title>441</title>
<g id="a_node7"><a xlink:title="main.py">
<polygon fill="#9dd007" stroke="#9dd007" points="248.5,-420 144.5,-420 144.5,-368 248.5,-368 248.5,-420"/>
<text text-anchor="middle" x="196.5" y="-408" font-family="Arial" font-size="10.00" fill="#ffffff">main:678:simulacao</text>
<text text-anchor="middle" x="196.5" y="-397" font-family="Arial" font-size="10.00" fill="#ffffff">68.68%</text>
<text text-anchor="middle" x="196.5" y="-386" font-family="Arial" font-size="10.00" fill="#ffffff">(0.26%)</text>
<text text-anchor="middle" x="196.5" y="-375" font-family="Arial" font-size="10.00" fill="#ffffff">6×</text>
</a>
</g>
</g>
<!-- 441&#45;&gt;439 -->
<g id="edge4" class="edge">
<title>441&#45;&gt;439</title>
<path fill="none" stroke="#9bd007" stroke-width="2.74" d="M196.5,-367.93C196.5,-358.26 196.5,-347.05 196.5,-336.69"/>
<polygon fill="#9bd007" stroke="#9bd007" stroke-width="2.74" points="199.41,-336.55 196.5,-328.25 193.6,-336.55 199.41,-336.55"/>
<text text-anchor="middle" x="218" y="-351" font-family="Arial" font-size="10.00" fill="#9bd007">68.40%</text>
<text text-anchor="middle" x="218" y="-340" font-family="Arial" font-size="10.00" fill="#9bd007">3333330×</text>
</g>
<!-- 442 -->
<g id="node8" class="node">
<title>442</title>
<g id="a_node8"><a xlink:title="main.py">
<polygon fill="#ff0000" stroke="#ff0000" points="178.5,-512 86.5,-512 86.5,-460 178.5,-460 178.5,-512"/>
<text text-anchor="middle" x="132.5" y="-500" font-family="Arial" font-size="10.00" fill="#ffffff">main:2:&lt;module&gt;</text>
<text text-anchor="middle" x="132.5" y="-489" font-family="Arial" font-size="10.00" fill="#ffffff">100.00%</text>
<text text-anchor="middle" x="132.5" y="-478" font-family="Arial" font-size="10.00" fill="#ffffff">(0.02%)</text>
<text text-anchor="middle" x="132.5" y="-467" font-family="Arial" font-size="10.00" fill="#ffffff">1×</text>
</a>
</g>
</g>
<!-- 442&#45;&gt;436 -->
<g id="edge5" class="edge">
<title>442&#45;&gt;436</title>
<path fill="none" stroke="#0c9492" stroke-width="1.02" d="M114.67,-459.93C106.83,-448.91 97.57,-435.88 89.41,-424.4"/>
<polygon fill="#0c9492" stroke="#0c9492" stroke-width="1.02" points="90.78,-423.31 86.45,-420.25 87.93,-425.34 90.78,-423.31"/>
<text text-anchor="middle" x="125.5" y="-443" font-family="Arial" font-size="10.00" fill="#0c9492">25.40%</text>
<text text-anchor="middle" x="125.5" y="-432" font-family="Arial" font-size="10.00" fill="#0c9492">29533×</text>
</g>
<!-- 442&#45;&gt;441 -->
<g id="edge6" class="edge">
<title>442&#45;&gt;441</title>
<path fill="none" stroke="#9dd007" stroke-width="2.75" d="M150.33,-459.93C157.55,-449.78 165.98,-437.92 173.64,-427.15"/>
<polygon fill="#9dd007" stroke="#9dd007" stroke-width="2.75" points="176.1,-428.7 178.55,-420.25 171.37,-425.33 176.1,-428.7"/>
<text text-anchor="middle" x="189.5" y="-443" font-family="Arial" font-size="10.00" fill="#9dd007">68.68%</text>
<text text-anchor="middle" x="189.5" y="-432" font-family="Arial" font-size="10.00" fill="#9dd007">6×</text>
</g>
<!-- 564 -->
<g id="node9" class="node">
<title>564</title>
<g id="a_node9"><a xlink:title="/usr/lib/python3/dist&#45;packages/matplotlib/axes/_axes.py">
<polygon fill="#0c9193" stroke="#0c9193" points="118,-144 19,-144 19,-92 118,-92 118,-144"/>
<text text-anchor="middle" x="68.5" y="-132" font-family="Arial" font-size="10.00" fill="#ffffff">_axes:4311:scatter</text>
<text text-anchor="middle" x="68.5" y="-121" font-family="Arial" font-size="10.00" fill="#ffffff">24.68%</text>
<text text-anchor="middle" x="68.5" y="-110" font-family="Arial" font-size="10.00" fill="#ffffff">(0.27%)</text>
<text text-anchor="middle" x="68.5" y="-99" font-family="Arial" font-size="10.00" fill="#ffffff">29533×</text>
</a>
</g>
</g>
<!-- 564&#45;&gt;220 -->
<g id="edge7" class="edge">
<title>564&#45;&gt;220</title>
<path fill="none" stroke="#0c6d8c" stroke-width="0.76" d="M68.5,-91.93C68.5,-81 68.5,-68.11 68.5,-56.7"/>
<polygon fill="#0c6d8c" stroke="#0c6d8c" stroke-width="0.76" points="70.04,-56.65 68.5,-52.25 66.96,-56.65 70.04,-56.65"/>
<text text-anchor="middle" x="85.5" y="-75" font-family="Arial" font-size="10.00" fill="#0c6d8c">19.08%</text>
<text text-anchor="middle" x="85.5" y="-64" font-family="Arial" font-size="10.00" fill="#0c6d8c">29533×</text>
</g>
<!-- 982 -->
<g id="node10" class="node">
<title>982</title>
<g id="a_node10"><a xlink:title="~">
<polygon fill="#ff0000" stroke="#ff0000" points="216,-604 49,-604 49,-552 216,-552 216,-604"/>
<text text-anchor="middle" x="132.5" y="-592" font-family="Arial" font-size="10.00" fill="#ffffff">~:0:&lt;built&#45;in method builtins.exec&gt;</text>
<text text-anchor="middle" x="132.5" y="-581" font-family="Arial" font-size="10.00" fill="#ffffff">100.00%</text>
<text text-anchor="middle" x="132.5" y="-570" font-family="Arial" font-size="10.00" fill="#ffffff">(0.00%)</text>
<text text-anchor="middle" x="132.5" y="-559" font-family="Arial" font-size="10.00" fill="#ffffff">873×</text>
</a>
</g>
</g>
<!-- 982&#45;&gt;442 -->
<g id="edge8" class="edge">
<title>982&#45;&gt;442</title>
<path fill="none" stroke="#ff0000" stroke-width="4" d="M132.5,-551.93C132.5,-542.74 132.5,-532.17 132.5,-522.25"/>
<polygon fill="#ff0000" stroke="#ff0000" stroke-width="4" points="136,-522.25 132.5,-512.25 129,-522.25 136,-522.25"/>
<text text-anchor="middle" x="152" y="-535" font-family="Arial" font-size="10.00" fill="#ff0000">100.00%</text>
<text text-anchor="middle" x="152" y="-524" font-family="Arial" font-size="10.00" fill="#ff0000">1×</text>
</g>
<!-- 2563&#45;&gt;564 -->
<g id="edge9" class="edge">
<title>2563&#45;&gt;564</title>
<path fill="none" stroke="#0c9193" stroke-width="0.99" d="M68.5,-183.93C68.5,-173.2 68.5,-160.56 68.5,-149.31"/>
<polygon fill="#0c9193" stroke="#0c9193" stroke-width="0.99" points="70.25,-149.25 68.5,-144.25 66.75,-149.25 70.25,-149.25"/>
<text text-anchor="middle" x="85.5" y="-167" font-family="Arial" font-size="10.00" fill="#0c9193">24.68%</text>
<text text-anchor="middle" x="85.5" y="-156" font-family="Arial" font-size="10.00" fill="#0c9193">29533×</text>
</g>
</g>
</svg>
